<?xml version="1.0" encoding="UTF-8"?>
<svg version="1.1" xmlns="http://www.w3.org/2000/svg" width="1182" height="1092">
<path d="M0 0 C0.75342682 -0.0007251 1.50685364 -0.0014502 2.28311157 -0.00219727 C15.99381214 -0.00074937 29.54595773 0.74771898 43.1875 2.1875 C43.5175 1.5275 43.8475 0.8675 44.1875 0.1875 C44.8475 0.8475 45.5075 1.5075 46.1875 2.1875 C48.94061333 2.80580403 48.94061333 2.80580403 52.22265625 3.1953125 C54.12519165 3.46214844 54.12519165 3.46214844 56.06616211 3.734375 C57.0873262 3.87456055 57.0873262 3.87456055 58.12911987 4.01757812 C76.13900614 6.52196739 93.61841201 10.55367489 111.1875 15.1875 C112.09580566 15.4246875 113.00411133 15.661875 113.93994141 15.90625 C123.61070692 18.46645266 132.88036969 21.84597967 142.14941406 25.59765625 C142.99213867 25.9328125 143.83486328 26.26796875 144.703125 26.61328125 C145.44852539 26.91661377 146.19392578 27.21994629 146.96191406 27.5324707 C149.46214692 28.26833344 151.59476922 28.30242196 154.1875 28.1875 C154.5175 29.1775 154.8475 30.1675 155.1875 31.1875 C157.91231733 32.27743318 157.91231733 32.27743318 161.1875 33.1875 C177.67242867 39.57319943 192.92648879 48.6077664 207.89672852 57.93652344 C210.97058002 59.6151353 214.09387861 60.57631837 217.47265625 61.44921875 C218.03855469 61.69285156 218.60445312 61.93648437 219.1875 62.1875 C219.5175 63.1775 219.8475 64.1675 220.1875 65.1875 C222.48879635 66.9074793 224.7851209 68.49587774 227.1875 70.0625 C233.35775066 74.19167582 239.35946332 78.48017604 245.25 83 C245.93900391 83.5264209 246.62800781 84.0528418 247.33789062 84.59521484 C251.21793344 87.58631685 254.93943078 90.67590423 258.54467773 93.99487305 C260.14676047 95.31926278 260.14676047 95.31926278 262.26977539 95.67895508 C265.47041676 96.52770568 266.44972721 99.50185114 268.1875 102.1875 C269.83941491 103.53906675 271.50272656 104.87712066 273.1875 106.1875 C273.1875 106.8475 273.1875 107.5075 273.1875 108.1875 C273.75823242 108.43371094 274.32896484 108.67992187 274.91699219 108.93359375 C277.5659281 110.39648997 279.37298546 112.11395319 281.515625 114.25 C282.31484375 115.04664063 283.1140625 115.84328125 283.9375 116.6640625 C284.7625 117.49679687 285.5875 118.32953125 286.4375 119.1875 C287.27796875 120.02023437 288.1184375 120.85296875 288.984375 121.7109375 C289.7784375 122.50757813 290.5725 123.30421875 291.390625 124.125 C292.11926758 124.85589844 292.84791016 125.58679688 293.59863281 126.33984375 C295.1875 128.1875 295.1875 128.1875 295.1875 130.1875 C295.8475 130.1875 296.5075 130.1875 297.1875 130.1875 C298.60188406 131.76036684 299.94354401 133.39889996 301.25 135.0625 C304.24304796 138.81455056 307.28617151 142.43094303 310.5625 145.9375 C314.90626188 150.68586536 318.66349579 155.76944037 322.38232422 161.01074219 C326.48270486 166.95112 326.48270486 166.95112 332.1875 171.1875 C332.44402344 172.00347656 332.70054687 172.81945312 332.96484375 173.66015625 C334.60637613 178.39595095 337.13031581 182.37024357 339.75 186.625 C340.2872168 187.51026367 340.82443359 188.39552734 341.37792969 189.30761719 C343.40854475 192.65251494 345.45070416 195.99017253 347.50146484 199.32275391 C354.2206357 210.24380332 360.23413449 221.36414963 365.359375 233.12890625 C365.71765381 233.95092529 366.07593262 234.77294434 366.44506836 235.61987305 C367.13507031 237.21752856 367.81596972 238.81915404 368.48657227 240.42504883 C370.43410449 245.00236332 370.43410449 245.00236332 374.1875 248.1875 C374.94441321 250.60425833 375.53778347 252.90790669 376.0625 255.375 C377.41218789 261.21229999 378.93599788 266.93368436 380.8125 272.625 C381.41964844 274.47931641 381.41964844 274.47931641 382.0390625 276.37109375 C382.87480851 279.30588679 382.87480851 279.30588679 385.1875 280.1875 C385.43381072 282.31723836 385.6717007 284.4483148 385.86523438 286.58349609 C386.41314038 291.01074269 387.72669027 295.21588695 388.9375 299.5 C394.93505219 321.70671184 397.99873771 344.32670907 400.1875 367.1875 C400.29191406 368.26016113 400.39632812 369.33282227 400.50390625 370.43798828 C400.97104908 375.26833382 401.42660234 380.0996898 401.85546875 384.93359375 C401.92016357 385.66247803 401.9848584 386.3913623 402.05151367 387.14233398 C404.28208511 420.68900706 399.9964135 457.38179078 391.40649414 489.75097656 C390.31408468 493.98413202 390.03023427 497.82337593 390.1875 502.1875 C389.1975 502.6825 389.1975 502.6825 388.1875 503.1875 C387.3290264 505.27047833 387.3290264 505.27047833 386.63671875 507.82421875 C386.35280273 508.78755127 386.06888672 509.75088379 385.77636719 510.7434082 C385.47891602 511.7768335 385.18146484 512.81025879 384.875 513.875 C382.54658725 521.76283204 380.09467169 529.52509665 377.23828125 537.23828125 C376.24250669 540.03311321 375.41464156 542.82874421 374.625 545.6875 C373.43260959 549.78799813 371.61605681 552.64874579 369.1875 556.1875 C367.40517785 559.80681676 365.76427668 563.48930621 364.10302734 567.16552734 C359.33215196 577.70216465 354.59163817 588.08701124 348.328125 597.83984375 C346.74692374 600.31263477 345.22434115 602.78981637 343.734375 605.31640625 C337.84905381 615.25246402 331.41063208 624.57252957 324.44921875 633.78515625 C322.20100337 636.76482295 320.10993201 639.80015373 318.08203125 642.93359375 C315.76476757 646.45616988 313.27769721 649.29588913 310.1875 652.1875 C308.20193722 654.26646034 306.25896544 656.3844527 304.3125 658.5 C303.51162964 659.3674585 303.51162964 659.3674585 302.69458008 660.25244141 C299.48557022 663.73924324 296.36286879 667.2778089 293.328125 670.91796875 C291.41756777 672.94357778 289.45760312 674.72560335 287.359375 676.55078125 C279.68158795 682.79679499 279.68158795 682.79679499 275.69921875 691.34375 C276.26741308 694.41601538 276.26741308 694.41601538 277.28125 697.4921875 C278.49472244 702.44022598 278.15957791 706.94961701 277.8125 712 C277.75594238 712.90322998 277.69938477 713.80645996 277.64111328 714.73706055 C277.50135423 716.8879813 277.34609564 719.03788606 277.1875 721.1875 C276.5275 721.1875 275.8675 721.1875 275.1875 721.1875 C274.92839844 721.90808594 274.66929687 722.62867188 274.40234375 723.37109375 C273.13379894 726.31199667 271.61682095 728.65250935 269.75 731.25 C268.85474609 732.50490234 268.85474609 732.50490234 267.94140625 733.78515625 C267.36261719 734.57792969 266.78382813 735.37070312 266.1875 736.1875 C265.70023438 736.8990625 265.21296875 737.610625 264.7109375 738.34375 C261.92220526 741.71883107 258.05957022 743.28010446 254.1875 745.1875 C253.27484375 745.64769531 252.3621875 746.10789062 251.421875 746.58203125 C239.60617253 752.06337986 227.94404007 752.34892151 215.66796875 748.37109375 C209.71449518 746.1854099 204.05492119 743.30246961 199.1875 739.1875 C199.1875 738.5275 199.1875 737.8675 199.1875 737.1875 C198.5275 737.1875 197.8675 737.1875 197.1875 737.1875 C194.9434038 734.71307135 193.09662068 731.92484216 191.1875 729.1875 C190.7028125 728.50558594 190.218125 727.82367187 189.71875 727.12109375 C189.2753125 726.46238281 188.831875 725.80367187 188.375 725.125 C187.97667969 724.53589844 187.57835937 723.94679688 187.16796875 723.33984375 C182.71243681 713.55897483 183.68396077 696.85055362 187.3125 687 C188.21320764 685.03504841 189.16834021 683.09370627 190.1875 681.1875 C190.85652344 679.92873047 190.85652344 679.92873047 191.5390625 678.64453125 C197.8077375 668.19090283 208.95877392 661.68379476 220.5703125 658.54296875 C233.01500048 656.85272008 243.53476499 658.0132809 254.625 664.0625 C257.08893107 665.45601146 257.08893107 665.45601146 259.4375 664.625 C261.32308718 663.29144462 261.32308718 663.29144462 262.125 661.125 C262.475625 660.485625 262.82625 659.84625 263.1875 659.1875 C264.85416667 658.85416667 266.52083333 658.52083333 268.1875 658.1875 C269.54770151 656.21991727 269.54770151 656.21991727 270.1875 654.1875 C270.8475 654.1875 271.5075 654.1875 272.1875 654.1875 C272.47625 653.589375 272.765 652.99125 273.0625 652.375 C274.1875 650.1875 274.1875 650.1875 276.1875 647.1875 C276.8475 647.1875 277.5075 647.1875 278.1875 647.1875 C278.5175 646.1975 278.8475 645.2075 279.1875 644.1875 C280.83683564 642.83278692 282.50552323 641.50146717 284.1875 640.1875 C287.04900145 637.01215646 289.58984361 633.58053001 292.1875 630.1875 C292.93918457 629.21635254 292.93918457 629.21635254 293.70605469 628.22558594 C295.35385208 626.0940134 296.99080395 623.95451354 298.625 621.8125 C299.15746338 621.1225293 299.68992676 620.43255859 300.23852539 619.72167969 C300.73602295 619.06329102 301.23352051 618.40490234 301.74609375 617.7265625 C302.19267334 617.14084473 302.63925293 616.55512695 303.09936523 615.95166016 C304.29649019 614.21360479 304.29649019 614.21360479 304.70483398 612.06787109 C305.1875 610.1875 305.1875 610.1875 307.3515625 608.5625 C311.48604635 605.10001215 313.81508881 600.783937 316.5625 596.1875 C317.13830811 595.2385083 317.71411621 594.2895166 318.30737305 593.31176758 C319.94316708 590.6090207 321.56616011 587.89893225 323.1875 585.1875 C323.89380461 584.02429805 324.60069736 582.86145267 325.30859375 581.69921875 C337.82533826 560.79943518 348.10346454 537.5932092 355.4375 514.375 C355.705625 513.55580078 355.97375 512.73660156 356.25 511.89257812 C357.51862118 507.89577414 358.56673196 504.43662177 358.1875 500.1875 C358.8475 500.1875 359.5075 500.1875 360.1875 500.1875 C362.52631233 490.57093088 364.73189846 480.9257694 366.8125 471.25 C367.12127075 469.86071289 367.12127075 469.86071289 367.4362793 468.44335938 C370.56709681 453.66295884 371.48732936 438.6103293 372.19287109 423.55151367 C372.31423171 420.96306516 372.44359281 418.37510548 372.57421875 415.78710938 C372.65670222 414.11460557 372.73875001 412.44208022 372.8203125 410.76953125 C372.85778595 410.00904984 372.8952594 409.24856842 372.93386841 408.46504211 C373.03117145 406.37279322 373.11274984 404.28066356 373.1875 402.1875 C373.26073486 400.25136841 373.26073486 400.25136841 373.33544922 398.27612305 C373.52936003 395.08105046 373.52936003 395.08105046 371.1875 393.1875 C371.1875 391.8675 371.1875 390.5475 371.1875 389.1875 C371.8475 389.1875 372.5075 389.1875 373.1875 389.1875 C372.95353516 387.58841797 372.95353516 387.58841797 372.71484375 385.95703125 C372.00552354 380.27872973 371.91546315 374.58997143 371.75 368.875 C370.96228492 346.31540827 367.76900514 324.81897591 362.1875 302.9375 C361.95063477 301.99745117 361.71376953 301.05740234 361.46972656 300.08886719 C360.08566835 294.83996258 358.37575606 289.98106878 356.0546875 285.07128906 C354.90832613 282.58105135 354.20287111 280.30016514 353.83203125 277.58203125 C352.98801885 273.13689926 351.48900101 269.09335749 349.875 264.875 C349.52743652 263.96637207 349.17987305 263.05774414 348.82177734 262.12158203 C344.26593929 250.50075105 338.75744984 239.34800138 333.1875 228.1875 C332.77274414 227.33945801 332.35798828 226.49141602 331.93066406 225.61767578 C325.42114837 212.32493038 317.49127981 200.12072017 309.08837891 187.94873047 C307.8042428 186.08338506 306.53600892 184.20700676 305.28271484 182.32080078 C304.67766113 181.42216309 304.07260742 180.52352539 303.44921875 179.59765625 C302.91643311 178.79593994 302.38364746 177.99422363 301.8347168 177.16821289 C300.0726306 175.0493741 298.62258538 174.37468756 296.1875 173.1875 C295.54505145 171.56447208 294.90586013 169.94006133 294.28515625 168.30859375 C291.86450109 163.63095762 287.77044556 159.99325058 284.1875 156.1875 C283.03451101 154.88128154 281.88809435 153.56921625 280.75 152.25 C277.81882776 148.89222523 274.85758566 145.56214132 271.875 142.25 C271.03324219 141.31285156 270.19148437 140.37570312 269.32421875 139.41015625 C267.38882969 137.14863804 267.38882969 137.14863804 265.1875 136.1875 C264.94 136.80625 264.6925 137.425 264.4375 138.0625 C263.1875 140.1875 263.1875 140.1875 261.49853516 140.93896484 C258.08901738 142.78095448 255.63551316 145.53573712 252.9609375 148.2890625 C252.37204742 148.88552582 251.78315735 149.48198914 251.17642212 150.0965271 C249.30022669 151.99711254 247.43063005 153.90398834 245.5625 155.8125 C243.09681607 158.33118225 240.62473298 160.84331757 238.1484375 163.3515625 C237.58071625 163.93588043 237.012995 164.52019836 236.42807007 165.1222229 C235.05209717 166.51542862 233.62420039 167.85700551 232.1875 169.1875 C231.5275 169.1875 230.8675 169.1875 230.1875 169.1875 C230.0225 169.868125 229.8575 170.54875 229.6875 171.25 C228.18471374 174.19295643 227.1352038 175.24841948 224.65112305 177.30664062 C219.91495636 181.35654548 215.60557149 185.74839029 211.26953125 190.21875 C209.5873381 191.93302751 207.90437306 193.64654788 206.22070312 195.359375 C203.59318118 198.03653807 200.97059603 200.71785318 198.3605957 203.41210938 C195.82301646 206.02806304 193.26701861 208.62474638 190.70703125 211.21875 C189.9267305 212.03315552 189.14642975 212.84756104 188.34248352 213.68664551 C187.60789413 214.42491577 186.87330475 215.16318604 186.11645508 215.92382812 C185.47662186 216.58000122 184.83678864 217.23617432 184.17756653 217.91223145 C182.1875 219.1875 182.1875 219.1875 179.61943054 219.03747559 C176.0880861 217.80324767 173.84867387 215.39561295 171.25 212.8125 C155.67788991 197.98044621 131.78300632 176.4086635 109.96484375 173.8046875 C108.1875 173.1875 108.1875 173.1875 107.16796875 171.21875 C106.84441406 170.5484375 106.52085937 169.878125 106.1875 169.1875 C104.20161371 168.43423279 102.2022329 167.70688424 100.1640625 167.109375 C95.6479044 165.71066987 91.26679124 163.96672286 86.86083984 162.25634766 C83.26114065 160.88198092 79.99613388 159.94922678 76.1875 159.1875 C76.5175 173.3775 76.8475 187.5675 77.1875 202.1875 C80.714375 203.734375 84.24125 205.28125 87.875 206.875 C104.27994503 214.27827456 119.69036869 223.21682997 133.1875 235.1875 C134.39364596 236.21611211 135.60214923 237.24196394 136.8125 238.265625 C146.46838347 246.45114438 146.46838347 246.45114438 149.46875 249.5234375 C151.04306287 251.36960575 151.04306287 251.36960575 153.25 251.5 C154.2090625 251.8403125 154.2090625 251.8403125 155.1875 252.1875 C155.83853336 253.79795095 156.48210353 255.41177994 157.08984375 257.0390625 C158.98969632 260.75763514 161.9957535 263.53095859 164.83984375 266.55078125 C167.79250892 269.86700254 170.18992961 273.42339015 172.58203125 277.15625 C174.31197704 279.3449892 175.72127789 279.99927736 178.1875 281.1875 C178.373125 282.4559375 178.373125 282.4559375 178.5625 283.75 C179.1925056 287.21503078 179.82457931 288.33496162 181.8203125 291.09375 C185.73171118 296.80893779 188.7057318 302.88599328 191.6875 309.125 C191.97230225 309.71976135 192.25710449 310.31452271 192.55053711 310.92730713 C203.90806629 334.74510789 210.33127902 360.09180148 211.94140625 386.4453125 C212.08503201 389.05741272 212.08503201 389.05741272 212.7175293 390.97753906 C213.80603573 396.09606387 212.80995372 401.63372856 212.4375 406.8125 C212.34750732 408.11453369 212.25751465 409.41656738 212.16479492 410.75805664 C211.56227636 418.84322465 210.70463102 426.78727686 209.06542969 434.73095703 C208.24412353 438.84675068 208.08787699 442.11592289 209.1875 446.1875 C210.80852968 447.89858689 212.48253463 449.56003306 214.1875 451.1875 C221.9922978 461.40639442 225.03572247 473.53728562 224.1875 486.1875 C221.88830771 499.69898717 215.72520202 510.89767237 204.5625 519.25 C192.62358427 526.10382199 180.68748901 529.16483417 167.125 525.8125 C166.11179687 525.5340625 165.09859375 525.255625 164.0546875 524.96875 C161.6234608 524.30629041 159.2198385 523.79714755 156.75 523.3125 C152.5462443 521.9849982 151.05399946 520.49499938 148.1875 517.1875 C147.04619708 516.07865119 145.90002234 514.97480302 144.75 513.875 C143.55455095 512.65356293 142.36696812 511.42437586 141.1875 510.1875 C140.64609375 509.63835937 140.1046875 509.08921875 139.546875 508.5234375 C132.20146996 500.10219031 130.44803431 487.0373795 130.875 476.203125 C132.2451739 462.98094691 138.13255883 452.09977376 148.26953125 443.515625 C150.1875 442.1875 150.1875 442.1875 152.1875 442.1875 C152.5175 440.8675 152.8475 439.5475 153.1875 438.1875 C153.991875 438.084375 154.79625 437.98125 155.625 437.875 C158.46367012 437.32718647 160.60258862 436.66051884 163.25 435.625 C169.12670879 433.55205135 175.0358604 433.93078552 181.1875 434.1875 C185.28464756 412.10002263 185.28464756 412.10002263 183.1875 390.1875 C183.19331242 388.72858313 183.24176153 387.26971251 183.3125 385.8125 C183.42483295 357.24248596 173.23418093 329.03429292 158.65625 304.8125 C157.1875 302.1875 157.1875 302.1875 157.1875 300.1875 C156.24390625 300.05601562 156.24390625 300.05601562 155.28125 299.921875 C153.1875 299.1875 153.1875 299.1875 152.28125 297.515625 C152.0853125 296.82984375 151.889375 296.1440625 151.6875 295.4375 C150.46725168 291.67562949 148.76916461 289.2142792 146.1875 286.1875 C146.1875 285.5275 146.1875 284.8675 146.1875 284.1875 C144.5375 283.5275 142.8875 282.8675 141.1875 282.1875 C141.1875 280.8675 141.1875 279.5475 141.1875 278.1875 C140.5275 278.1875 139.8675 278.1875 139.1875 278.1875 C137.6796875 276.65625 137.6796875 276.65625 136.0625 274.6875 C135.52367187 274.0378125 134.98484375 273.388125 134.4296875 272.71875 C134.01976562 272.2134375 133.60984375 271.708125 133.1875 271.1875 C129.96837698 271.7670818 128.28957467 272.67511055 126 275 C125.49082031 275.50144531 124.98164062 276.00289063 124.45703125 276.51953125 C123.04858203 278.10759264 123.04858203 278.10759264 122.83461189 280.14592934 C121.98764368 282.81802587 121.00026697 283.21598554 118.56417847 284.52059937 C114.12687135 287.11441066 110.75281307 290.21007172 107.16064453 293.85791016 C106.18347725 294.83201088 106.18347725 294.83201088 105.18656921 295.82579041 C103.05716551 297.95221081 100.93863888 300.08911149 98.8203125 302.2265625 C97.33496607 303.71496998 95.84902514 305.2027844 94.36251831 306.69003296 C91.25986421 309.79727417 88.1621667 312.90934115 85.06835938 316.02539062 C81.10061002 320.02151969 77.12414381 324.00882953 73.14441109 327.99302101 C70.08134606 331.06023831 67.02112241 334.13027629 63.96194077 337.20136642 C62.4959544 338.67305132 61.02949783 340.14426797 59.56256485 341.61500931 C57.51840395 343.66603288 55.47766746 345.72039956 53.43798828 347.77587891 C52.83124771 348.38373734 52.22450714 348.99159576 51.59938049 349.61787415 C49.1944204 352.04758062 47.08974114 354.33413829 45.1875 357.1875 C44.1975 356.8575 43.2075 356.5275 42.1875 356.1875 C42.1875 355.5275 42.1875 354.8675 42.1875 354.1875 C41.34832031 353.79691406 41.34832031 353.79691406 40.4921875 353.3984375 C37.93759888 352.05619602 35.68070162 350.4608835 33.3125 348.8125 C19.80671345 340.30030032 3.77715036 339.02671773 -11.73046875 341.91796875 C-21.05297965 344.59559498 -28.50004079 348.94515677 -35.8125 355.1875 C-36.4725 355.1875 -37.1325 355.1875 -37.8125 355.1875 C-37.8125 355.8475 -37.8125 356.5075 -37.8125 357.1875 C-38.4725 357.1875 -39.1325 357.1875 -39.8125 357.1875 C-40.08449219 357.76371094 -40.35648438 358.33992188 -40.63671875 358.93359375 C-41.8150679 361.19242253 -43.15328789 363.17251721 -44.625 365.25 C-49.39305544 372.36702392 -53.21787109 379.54012619 -53.671875 388.21484375 C-53.82086555 390.30485005 -54.29473303 392.16092773 -54.8125 394.1875 C-55.95042123 409.54943665 -49.7525607 425.33662549 -40.125 437.1875 C-28.59019834 449.0628962 -12.79716921 454.96563716 3.4375 455.5625 C16.59217023 455.28228217 28.59922798 450.87562516 39.1875 443.1875 C41.0027348 441.2663863 42.57581902 439.29047407 44.1875 437.1875 C44.8475 437.5175 45.5075 437.8475 46.1875 438.1875 C46.1875 438.8475 46.1875 439.5075 46.1875 440.1875 C46.8475 440.1875 47.5075 440.1875 48.1875 440.1875 C48.1875 440.8475 48.1875 441.5075 48.1875 442.1875 C48.8475 442.1875 49.5075 442.1875 50.1875 442.1875 C50.1875 442.8475 50.1875 443.5075 50.1875 444.1875 C51.0228125 444.5278125 51.0228125 444.5278125 51.875 444.875 C54.84909588 446.56300036 56.90758865 448.65426517 59.1875 451.1875 C59.1875 451.8475 59.1875 452.5075 59.1875 453.1875 C59.8475 453.1875 60.5075 453.1875 61.1875 453.1875 C61.1875 453.8475 61.1875 454.5075 61.1875 455.1875 C62.0228125 455.5278125 62.0228125 455.5278125 62.875 455.875 C65.84909588 457.56300036 67.90758865 459.65426517 70.1875 462.1875 C70.1875 462.8475 70.1875 463.5075 70.1875 464.1875 C70.77015625 464.4453125 71.3528125 464.703125 71.953125 464.96875 C74.3677903 466.28584017 76.00490177 467.73838384 77.9375 469.6875 C78.55109375 470.2959375 79.1646875 470.904375 79.796875 471.53125 C81.1875 473.1875 81.1875 473.1875 81.1875 475.1875 C81.77015625 475.4453125 82.3528125 475.703125 82.953125 475.96875 C85.3677903 477.28584017 87.00490177 478.73838384 88.9375 480.6875 C89.55109375 481.2959375 90.1646875 481.904375 90.796875 482.53125 C92.1875 484.1875 92.1875 484.1875 92.1875 486.1875 C93.02474609 486.5278125 93.02474609 486.5278125 93.87890625 486.875 C97.8101394 489.1100158 100.57620092 492.60392385 103.65234375 495.875 C106.00494503 498.31080213 106.00494503 498.31080213 108.87890625 499.1875 C109.64074219 499.5175 110.40257812 499.8475 111.1875 500.1875 C111.64132805 501.33575256 111.64132805 501.33575256 112.10432434 502.50720215 C113.29418864 505.45149905 114.5526604 506.88387355 116.8269043 509.07226562 C117.57074875 509.79651733 118.3145932 510.52076904 119.08097839 511.26696777 C120.28419487 512.41872498 120.28419487 512.41872498 121.51171875 513.59375 C123.19636372 515.24047612 124.88059623 516.88762429 126.56445312 518.53515625 C129.22558857 521.12163897 131.89122721 523.70312184 134.56469727 526.27685547 C137.14343907 528.76528561 139.70345641 531.27179521 142.26171875 533.78125 C143.06993576 534.54908813 143.87815277 535.31692627 144.71086121 536.10803223 C145.44524918 536.83228394 146.17963715 537.55653564 146.9362793 538.30273438 C147.58976852 538.93385132 148.24325775 539.56496826 148.91654968 540.21520996 C150.1875 542.1875 150.1875 542.1875 149.96798706 544.82540894 C149.12074957 547.38951564 148.32158406 548.51711898 146.37109375 550.3515625 C145.77989746 550.91085449 145.18870117 551.47014648 144.57958984 552.04638672 C143.9345752 552.6292041 143.28956055 553.21202148 142.625 553.8125 C141.95678223 554.42496582 141.28856445 555.03743164 140.60009766 555.66845703 C133.61714673 561.92594881 126.07410632 567.14689414 118.1875 572.1875 C116.53621094 573.26451172 116.53621094 573.26451172 114.8515625 574.36328125 C103.83953059 581.36475833 92.1230169 587.06744362 80.12890625 592.1796875 C78.01977364 593.03312626 78.01977364 593.03312626 77.1875 595.1875 C77.0902114 597.31068064 77.05772381 599.43709691 77.0625 601.5625 C77.05863281 603.27566406 77.05863281 603.27566406 77.0546875 605.0234375 C77.16415548 607.63135122 77.53728975 609.69305705 78.1875 612.1875 C77.8575 612.5175 77.5275 612.8475 77.1875 613.1875 C77.06254973 615.650993 77.00147797 618.08786767 76.98217773 620.55297852 C76.97227814 621.32365662 76.96237854 622.09433472 76.95217896 622.8883667 C76.92047299 625.44768147 76.8957708 628.00701483 76.87109375 630.56640625 C76.85053206 632.33618159 76.82953581 634.10595194 76.80812073 635.87571716 C76.75281891 640.5429582 76.70344554 645.21024414 76.65527344 649.87756348 C76.60511747 654.63651546 76.54940066 659.39540191 76.49414062 664.15429688 C76.38645992 673.49864198 76.28503712 682.8430439 76.1875 692.1875 C69.78712943 694.98288935 63.77500376 696.55900343 56.9375 697.875 C55.22542358 698.20588623 55.22542358 698.20588623 53.47875977 698.54345703 C43.68546559 700.31757971 34.1147371 701.00025625 24.1875 700.1875 C22.32062423 698.32062423 23.06743502 695.64468552 23.06307983 693.16117859 C23.06667511 692.29515518 23.07027039 691.42913177 23.07397461 690.53686523 C23.07382858 689.62963715 23.07368256 688.72240906 23.0735321 687.78768921 C23.07423159 684.77380015 23.08202566 681.75997207 23.08984375 678.74609375 C23.0917078 676.66244033 23.09313176 674.57878646 23.09413147 672.49513245 C23.09795766 666.99926554 23.1077888 661.50342487 23.11883545 656.00756836 C23.1290474 650.40413773 23.13362863 644.80070287 23.13867188 639.19726562 C23.14941098 628.19399886 23.16648861 617.19075161 23.1875 606.1875 C22.26500584 606.29352948 22.26500584 606.29352948 21.32387543 606.40170097 C20.51554512 606.49334589 19.70721481 606.58499081 18.87438965 606.67941284 C18.07376854 606.77072416 17.27314743 606.86203548 16.44826508 606.95611382 C13.82233707 607.22487392 11.23300598 607.31684761 8.59375 607.3203125 C7.62566406 607.32160156 6.65757812 607.32289063 5.66015625 607.32421875 C4.67917969 607.32035156 3.69820312 607.31648437 2.6875 607.3125 C1.70652344 607.31636719 0.72554687 607.32023438 -0.28515625 607.32421875 C-6.20836537 607.31633165 -11.93845045 606.95209736 -17.8125 606.1875 C-17.78220703 607.16243408 -17.75191406 608.13736816 -17.72070312 609.1418457 C-17.05191347 631.13650996 -16.70466029 653.1198479 -16.6875 675.125 C-16.68375366 676.83292221 -16.68375366 676.83292221 -16.67993164 678.5753479 C-16.6740866 681.80937818 -16.67550202 685.04331262 -16.6796875 688.27734375 C-16.67671158 689.74018295 -16.67671158 689.74018295 -16.67367554 691.23257446 C-16.67678741 692.1225412 -16.67989929 693.01250793 -16.68310547 693.92944336 C-16.68429886 695.09629921 -16.68429886 695.09629921 -16.68551636 696.28672791 C-16.8125 698.1875 -16.8125 698.1875 -17.8125 700.1875 C-30.04236466 700.75099206 -41.75597948 699.02796099 -53.8125 697.1875 C-55.24607194 696.97251074 -56.67966344 696.7576519 -58.11328125 696.54296875 C-61.01494089 696.10217018 -63.91459896 695.65225771 -66.8125 695.1875 C-66.8125 694.5275 -66.8125 693.8675 -66.8125 693.1875 C-68.34777344 692.98640625 -68.34777344 692.98640625 -69.9140625 692.78125 C-103.93819089 687.59921842 -138.56286394 670.32033694 -166.46484375 650.6484375 C-168.65091035 649.28805662 -170.29585525 648.61959214 -172.8125 648.1875 C-173.039375 648.950625 -173.26625 649.71375 -173.5 650.5 C-175.12235008 653.82195492 -176.67001908 654.32433431 -179.8125 656.1875 C-181.40347008 657.60037014 -182.95026744 659.06405787 -184.45703125 660.56640625 C-185.29814453 661.40494141 -186.13925781 662.24347656 -187.00585938 663.10742188 C-188.30233398 664.41549805 -188.30233398 664.41549805 -189.625 665.75 C-190.50865234 666.62591797 -191.39230469 667.50183594 -192.30273438 668.40429688 C-193.13740234 669.24154297 -193.97207031 670.07878906 -194.83203125 670.94140625 C-195.59620361 671.70783447 -196.36037598 672.4742627 -197.14770508 673.26391602 C-199.03063719 675.01555334 -199.03063719 675.01555334 -198.8125 677.1875 C-196.44770071 678.92168614 -194.08603439 680.53849132 -191.625 682.125 C-190.95146484 682.56779297 -190.27792969 683.01058594 -189.58398438 683.46679688 C-187.66859601 684.7206755 -185.741292 685.95438927 -183.8125 687.1875 C-182.90886719 687.78691406 -182.00523437 688.38632812 -181.07421875 689.00390625 C-178.64727551 690.49660925 -178.64727551 690.49660925 -174.8125 690.1875 C-173.4579725 691.83698804 -172.12799716 693.5067196 -170.8125 695.1875 C-168.67391947 696.67723229 -166.6490222 697.94734013 -164.375 699.1875 C-163.70686279 699.55633301 -163.03872559 699.92516602 -162.3503418 700.30517578 C-155.70945416 703.86907299 -148.88732958 707.06289426 -142.03317261 710.19140625 C-140.77926242 710.76382476 -139.52686669 711.33957464 -138.27615356 711.91894531 C-130.85015546 715.34381798 -123.80981436 717.9403893 -115.73901367 719.35595703 C-112.21909094 720.35611193 -109.83866328 722.151085 -106.8125 724.1875 C-103.62267135 725.39741718 -103.62267135 725.39741718 -100.234375 726.2578125 C-98.99042969 726.59683594 -97.74648438 726.93585937 -96.46484375 727.28515625 C-95.82272949 727.45418457 -95.18061523 727.62321289 -94.51904297 727.79736328 C-92.57874565 728.3082227 -90.64284553 728.8356885 -88.70703125 729.36328125 C-81.7802012 731.22902185 -74.86560064 732.88320321 -67.8125 734.1875 C-66.14546328 734.51897768 -64.47879805 734.85232883 -62.8125 735.1875 C-30.85037809 741.56397453 11.8001507 747.38657365 44.07226562 738.67895508 C46.74540239 738.05787656 49.3342779 737.94126959 52.07421875 737.7890625 C59.19138656 737.27495109 66.02659863 736.0421683 73 734.5625 C74.86567627 734.17360596 74.86567627 734.17360596 76.76904297 733.77685547 C88.06219919 731.35206808 99.09699819 728.22177344 110.10400391 724.73486328 C112.1875 724.1875 112.1875 724.1875 115.1875 724.1875 C116.44101379 719.36587495 116.29660071 714.66018071 116.25 709.71899414 C116.24055857 707.75708633 116.23137455 705.79517727 116.22241211 703.83326721 C116.21611786 702.79699251 116.20982361 701.76071781 116.20333862 700.69304085 C116.17630807 695.19705945 116.1862448 689.70110741 116.19140625 684.20507812 C116.19762007 677.21491749 116.19215608 670.22556663 116.13623047 663.2355957 C116.09197528 657.58189755 116.09140486 651.92968675 116.12036133 646.27590752 C116.12344245 644.12331933 116.11053878 641.97064627 116.08129883 639.81825447 C116.04261961 636.80561009 116.05979816 633.79803442 116.08984375 630.78540039 C116.06526596 629.8984549 116.04068817 629.0115094 116.0153656 628.09768677 C116.10591785 624.23227734 116.28590574 622.06766684 119.12380981 619.29720879 C122.67764974 616.84014399 125.93219632 615.05003259 130.1875 614.1875 C130.26097656 613.56488281 130.33445312 612.94226563 130.41015625 612.30078125 C131.1875 610.1875 131.1875 610.1875 133.12109375 609.16796875 C133.94738281 608.90628906 134.77367187 608.64460937 135.625 608.375 C141.44960699 606.25467544 146.51670465 603.28342823 151.1875 599.1875 C151.4659375 598.5171875 151.744375 597.846875 152.03125 597.15625 C153.57451147 594.52853452 155.49777987 594.13831311 158.25292969 593.08105469 C161.75658657 591.46275784 164.45716795 588.86661021 167.3125 586.3125 C167.90675781 585.79558594 168.50101563 585.27867187 169.11328125 584.74609375 C171.85992721 582.33898901 174.37137761 579.98056908 176.8046875 577.2421875 C179.1875 575.1875 179.1875 575.1875 181.6484375 575.03515625 C185.05723808 576.58222728 187.31122204 578.92100858 189.8125 581.625 C192.47882045 584.43904901 194.93701909 587.02051272 198.1875 589.1875 C198.1875 589.8475 198.1875 590.5075 198.1875 591.1875 C222.58764307 577.95279342 241.65733418 539.1034589 253.0625 515.25 C253.44390137 514.45722656 253.82530273 513.66445313 254.21826172 512.84765625 C256.33034818 508.35199716 257.96887186 504.00428807 259.1875 499.1875 C259.8475 499.1875 260.5075 499.1875 261.1875 499.1875 C261.29707031 498.36765625 261.40664063 497.5478125 261.51953125 496.703125 C261.67808594 495.62546875 261.83664062 494.5478125 262 493.4375 C262.15082031 492.37015625 262.30164063 491.3028125 262.45703125 490.203125 C263.1875 487.1875 263.1875 487.1875 264.62792969 485.33056641 C266.41741219 482.87156869 267.07554576 480.81228005 267.87109375 477.8828125 C268.15702393 476.83561035 268.4429541 475.7884082 268.73754883 474.70947266 C269.03040771 473.58847168 269.3232666 472.4674707 269.625 471.3125 C269.93139404 470.15153809 270.23778809 468.99057617 270.5534668 467.79443359 C273.33776466 457.00923749 275.56172355 446.20547391 277.1875 435.1875 C277.30464355 434.41438477 277.42178711 433.64126953 277.54248047 432.84472656 C282.87567747 395.93234676 279.45988091 356.20358893 268.71166992 320.61621094 C267.70359107 317.26596259 267.1875 314.73252261 267.1875 311.1875 C266.5275 311.1875 265.8675 311.1875 265.1875 311.1875 C263.00007986 307.9063698 262.64307194 305.85665644 262.0625 302 C261.81113281 300.36998047 261.81113281 300.36998047 261.5546875 298.70703125 C261.43351563 297.87558594 261.31234375 297.04414063 261.1875 296.1875 C260.135625 296.39375 259.08375 296.6 258 296.8125 C244.14475568 298.50455639 232.14150018 293.08978139 221.4375 284.89453125 C219.31161537 283.17275523 219.31161537 283.17275523 217.1875 282.1875 C216.44498772 280.53372264 215.71232569 278.87456421 215.0390625 277.19140625 C214.20410442 275.2265737 213.22454588 273.42680768 212.1875 271.5625 C206.42990634 260.15803563 205.90795865 248.19905384 209.21875 236.10546875 C213.44746519 223.36816937 222.4854437 214.39262495 234.1875 208.1875 C240.56933176 205.12061265 246.93337757 204.72600592 253.9453125 204.38671875 C256.48480115 204.23067788 258.72206623 203.92835291 261.1875 203.375 C265.37161135 203.11349304 266.85266083 204.70271787 270.1875 207.1875 C271.76219548 207.93513803 273.34652526 208.6626603 274.9375 209.375 C286.81621035 215.2606863 293.38533154 224.47303971 298 236.625 C302.21703028 250.70686898 299.57169913 262.39427876 292.84375 275.0234375 C291.43715325 277.71056809 290.24985034 280.35102459 289.1875 283.1875 C288.1975 283.1875 287.2075 283.1875 286.1875 283.1875 C287.34922351 288.19885631 288.76077619 292.95691177 290.54736328 297.77832031 C300.67511245 325.189354 306.44729266 354.99237413 307.046875 384.23046875 C307.056489 387.93871181 307.056489 387.93871181 307.70874023 390.50097656 C308.29639204 393.79853926 308.16260089 396.78325057 307.98828125 400.12890625 C307.95359238 400.80034668 307.9189035 401.47178711 307.88316345 402.16357422 C307.76497599 404.35971154 307.63433675 406.55479373 307.5 408.75 C307.45460083 409.50570282 307.40920166 410.26140564 307.36242676 411.04000854 C305.63828837 439.03660906 301.1473987 466.47484091 292.0703125 493.078125 C291.04668049 496.05812958 291.04668049 496.05812958 291.3046875 498.734375 C291.13328256 502.32245166 289.20829517 504.24401537 287.1875 507.1875 C285.72539563 510.27990899 284.47144359 513.45517161 283.1875 516.625 C279.359406 525.84163267 274.97132378 534.66307833 270.26171875 543.45874023 C269.77574219 544.36696533 269.28976562 545.27519043 268.7890625 546.2109375 C268.33047852 547.0678418 267.87189453 547.92474609 267.39941406 548.80761719 C266.34371998 550.88072474 265.43892785 552.93981172 264.5859375 555.1015625 C263.1296918 558.31506559 261.71428629 559.78635501 259.1875 562.1875 C257.44977315 564.5421757 255.86254705 566.99597995 254.25 569.4375 C246.37865633 581.11139918 237.46690053 591.95126307 227.89453125 602.26953125 C226.0253579 604.28032303 226.0253579 604.28032303 224.1875 607.1875 C223.5275 607.1875 222.8675 607.1875 222.1875 607.1875 C222.1875 608.5075 222.1875 609.8275 222.1875 611.1875 C221.23875 611.435 220.29 611.6825 219.3125 611.9375 C215.62313054 613.41324779 215.82945042 613.84966648 214.1875 617.1875 C208.89753119 622.70699225 202.73088293 627.44058239 196.75 632.1875 C196.14704102 632.66840088 195.54408203 633.14930176 194.92285156 633.64477539 C192.35688276 635.65319232 190.30350098 637.14883301 187.1875 638.1875 C187.1875 638.8475 187.1875 639.5075 187.1875 640.1875 C185.11363995 641.79984483 183.05010139 643.28683403 180.875 644.75 C180.28009766 645.16185547 179.68519531 645.57371094 179.07226562 645.99804688 C176.46464206 647.77822341 174.19753855 649.18415382 171.1875 650.1875 C171.1875 672.6275 171.1875 695.0675 171.1875 718.1875 C171.8475 718.5175 172.5075 718.8475 173.1875 719.1875 C173.1875 719.8475 173.1875 720.5075 173.1875 721.1875 C172.5275 721.1875 171.8675 721.1875 171.1875 721.1875 C171.18133667 722.89063354 171.18133667 722.89063354 171.17504883 724.62817383 C171.15328611 728.83859734 171.09902724 733.04808249 171.03491211 737.25805664 C171.01170692 739.08055634 170.99733047 740.90319062 170.99194336 742.72583008 C170.98267174 745.34541939 170.94172464 747.96288477 170.89453125 750.58203125 C170.8984639 751.39775101 170.90239655 752.21347076 170.90644836 753.0539093 C170.84692383 755.35864258 170.84692383 755.35864258 170.1875 759.1875 C167.80834961 761.14086914 167.80834961 761.14086914 165.1875 762.1875 C163.88039063 762.85652344 163.88039063 762.85652344 162.546875 763.5390625 C161.68578125 763.95929687 160.8246875 764.37953125 159.9375 764.8125 C156.84799827 766.18970913 156.84799827 766.18970913 154.1875 768.1875 C152.7334375 768.3421875 152.7334375 768.3421875 151.25 768.5 C148.23259037 768.89909626 145.73735355 769.68837205 142.9375 770.875 C130.6723984 775.98854689 117.76339094 779.4519155 104.86181641 782.53881836 C101.54360792 783.33384125 98.31344338 784.14493873 95.078125 785.23828125 C91.66396943 786.35941612 88.28740147 786.9944662 84.75 787.625 C83.32665565 787.88188746 81.90348203 788.13972243 80.48046875 788.3984375 C79.40611572 788.59324707 79.40611572 788.59324707 78.31005859 788.79199219 C73.9505513 789.60432274 69.61294742 790.52918148 65.2734375 791.44140625 C29.14938987 798.37983732 -9.34143071 797.68412708 -45.8125 794.1875 C-47.51166921 794.04109062 -49.21088494 793.89521963 -50.91015625 793.75 C-59.33127349 792.9797438 -67.32090709 791.52497139 -75.5 789.31640625 C-79.55773179 788.22665356 -83.64588445 787.32242219 -87.75048828 786.42797852 C-116.02116145 780.24024045 -144.45710134 770.75063724 -170.2109375 757.4296875 C-172.78321997 755.97205997 -172.78321997 755.97205997 -175.8125 756.1875 C-176.8417045 755.21758346 -177.83950093 754.21379081 -178.8125 753.1875 C-180.52199559 752.131368 -180.52199559 752.131368 -182.41796875 751.234375 C-183.14258301 750.86989258 -183.86719727 750.50541016 -184.61376953 750.12988281 C-185.40122559 749.73639648 -186.18868164 749.34291016 -187 748.9375 C-201.58704974 741.465597 -215.40214077 732.56545878 -228.97509766 723.39770508 C-230.46725817 722.41489354 -232.00900191 721.50766937 -233.5625 720.625 C-236.38609885 718.82103407 -238.44189472 716.55810528 -240.8125 714.1875 C-242.77577026 712.45377303 -244.74572967 710.74687755 -246.75 709.0625 C-247.57794067 708.36169312 -247.57794067 708.36169312 -248.42260742 707.64672852 C-253.3315693 703.52231963 -258.37404581 699.5754253 -263.49389648 695.71630859 C-264.96897479 694.58493173 -266.39610954 693.39153807 -267.8125 692.1875 C-267.8125 691.5275 -267.8125 690.8675 -267.8125 690.1875 C-268.8025 689.8575 -269.7925 689.5275 -270.8125 689.1875 C-273.5 686.75 -273.5 686.75 -275.8125 684.1875 C-275.8125 683.5275 -275.8125 682.8675 -275.8125 682.1875 C-276.4725 682.1875 -277.1325 682.1875 -277.8125 682.1875 C-278.14424048 679.05502223 -278.12576554 677.6214431 -276.25166321 675.02539062 C-275.52061874 674.30544922 -274.78957428 673.58550781 -274.03637695 672.84375 C-273.21164383 672.01939453 -272.38691071 671.19503906 -271.53718567 670.34570312 C-270.63417221 669.46849609 -269.73115875 668.59128906 -268.80078125 667.6875 C-267.42021797 666.31754883 -267.42021797 666.31754883 -266.01176453 664.91992188 C-263.56349755 662.49073091 -261.10061115 660.07690578 -258.63433838 657.66601562 C-256.14123034 655.22382026 -253.66197418 652.7676565 -251.18164062 650.3125 C-247.54046589 646.7110712 -243.89188744 643.11733669 -240.2355957 639.53125 C-237.07737607 636.43323357 -233.93273988 633.32372472 -230.8125 630.1875 C-225.47916667 624.85416667 -220.14583333 619.52083333 -214.8125 614.1875 C-216.31755527 610.15965754 -217.96880008 607.63362769 -220.9375 604.5 C-224.8125 600.39746441 -224.8125 600.39746441 -224.8125 598.1875 C-225.4725 598.1875 -226.1325 598.1875 -226.8125 598.1875 C-228.58344989 596.14106902 -230.23810131 594.08765643 -231.875 591.9375 C-232.36234619 591.30650391 -232.84969238 590.67550781 -233.35180664 590.02539062 C-234.84622603 588.08505381 -236.33065576 586.13745198 -237.8125 584.1875 C-238.25174805 583.61193359 -238.69099609 583.03636719 -239.14355469 582.44335938 C-246.57151243 572.69741637 -246.57151243 572.69741637 -248.28778076 569.06588745 C-251.07599513 565.8870939 -251.43152663 565.74677281 -255.39361572 565.42800903 C-257.32231676 565.39285772 -259.25178807 565.39087156 -261.18066406 565.41455078 C-262.23463379 565.40392105 -263.28860352 565.39329132 -264.37451172 565.38233948 C-267.85953138 565.35422631 -271.34304322 565.36836508 -274.828125 565.3828125 C-277.24380825 565.37156608 -279.65948058 565.35768709 -282.07513428 565.34127808 C-288.43417501 565.30516911 -294.79273567 565.30487569 -301.15185547 565.31195068 C-307.64038741 565.31286211 -314.12873801 565.28002614 -320.6171875 565.25 C-333.34899827 565.19607093 -346.0805859 565.17881829 -358.8125 565.1875 C-359.93651973 562.95344428 -361.05901807 560.71864558 -362.18066406 558.48339844 C-362.49685699 557.85533295 -362.81304993 557.22726746 -363.13882446 556.58016968 C-365.46830901 551.93372674 -367.62229056 547.25774492 -369.5625 542.4375 C-369.85415039 541.72215088 -370.14580078 541.00680176 -370.44628906 540.26977539 C-372.2914786 535.67604393 -373.88534549 531.07096415 -375.20703125 526.296875 C-375.78918698 524.26871954 -376.48281405 522.33964551 -377.25 520.375 C-379.07471118 515.6883734 -380.43918982 510.86795615 -381.84765625 506.04296875 C-382.72621307 503.03617235 -382.72621307 503.03617235 -384.8125 500.1875 C-385.07083393 498.60760656 -385.31774508 497.02503994 -385.50830078 495.43554688 C-386.18964244 490.40039918 -387.27623576 485.42271869 -388.25 480.4375 C-388.68675424 478.19281651 -389.12295742 475.94802572 -389.55859375 473.703125 C-389.76983887 472.61837891 -389.98108398 471.53363281 -390.19873047 470.41601562 C-390.96968374 466.360691 -391.67721814 462.29537661 -392.36743164 458.22558594 C-392.61693544 456.20307561 -392.61693544 456.20307561 -393.8125 455.1875 C-396.65216931 442.48564425 -396.30541695 429.25082902 -396.5 416.3125 C-396.51962799 415.16386475 -396.53925598 414.01522949 -396.55947876 412.83178711 C-396.79570348 398.77916855 -396.92521363 384.73722158 -396.5 370.6875 C-396.46543701 369.46434082 -396.43087402 368.24118164 -396.39526367 366.98095703 C-396.02337937 357.37451244 -394.87486689 348.31431786 -391.8125 339.1875 C-391.0879617 335.43245547 -390.52036015 331.65425691 -389.9375 327.875 C-387.87948074 315.05292813 -385.28027029 302.58120585 -381.328125 290.19921875 C-380.67283978 287.98873816 -380.67283978 287.98873816 -380.8125 284.8125 C-380.8125 282.1875 -380.8125 282.1875 -379.5078125 280.609375 C-376.97664277 276.99341824 -375.98821818 273.00225821 -374.6875 268.8125 C-369.36826314 252.32531168 -362.7946396 236.46749712 -354.79638672 221.10400391 C-353.77618612 219.11676452 -352.79227029 217.11482472 -351.81640625 215.10546875 C-346.95651009 205.1202896 -341.47148111 195.7177876 -335.34375 186.4453125 C-334.9324585 185.81834473 -334.52116699 185.19137695 -334.09741211 184.54541016 C-333.30392319 183.33940843 -332.50304935 182.13822136 -331.69360352 180.94287109 C-330.01951793 178.40470524 -328.85471733 176.4205135 -328.30859375 173.40625 C-328.14488281 172.6740625 -327.98117187 171.941875 -327.8125 171.1875 C-326.48801394 170.50342478 -325.15282516 169.83999573 -323.8125 169.1875 C-322.1875857 167.11073788 -320.7094928 165.06145111 -319.25 162.875 C-312.70645533 153.39135222 -305.18138402 144.86911405 -297.57421875 136.23046875 C-290.85899156 128.46576495 -290.85899156 128.46576495 -284.8125 120.1875 C-282.51703586 118.60442128 -281.28904933 118.15419968 -278.49217224 118.34963989 C-274.9600932 119.45402426 -273.33609182 121.20343895 -270.75024414 123.84326172 C-270.27147324 124.3262674 -269.79270233 124.80927307 -269.29942322 125.30691528 C-268.26424535 126.35393881 -267.23373915 127.40559746 -266.20744514 128.46133041 C-264.5804512 130.13488492 -262.94157208 131.79594035 -261.29917908 133.45437622 C-257.81308289 136.97931603 -254.34374459 140.52049825 -250.875 144.0625 C-246.85710313 148.16089662 -242.83247104 152.25242992 -238.79617119 156.33270645 C-237.18655685 157.96540822 -235.58674549 159.60729412 -233.98731995 161.24996948 C-232.99334974 162.25804334 -231.99898052 163.26572398 -231.00415039 164.27294922 C-230.14431046 165.15151581 -229.28447052 166.0300824 -228.39857483 166.93527222 C-225.69467776 169.29011208 -223.00319261 170.59717351 -219.8125 172.1875 C-218.9375 174.875 -218.9375 174.875 -218.8125 177.1875 C-218.1525 177.1875 -217.4925 177.1875 -216.8125 177.1875 C-216.8125 177.8475 -216.8125 178.5075 -216.8125 179.1875 C-215.1625 179.8475 -213.5125 180.5075 -211.8125 181.1875 C-207.4460837 178.09998869 -207.4460837 178.09998869 -204.9375 173.625 C-203.42492035 170.3477441 -201.26533093 169.82951637 -198.0859375 168.40625 C-194.62094524 166.54872838 -191.98343357 163.94027479 -189.1171875 161.27734375 C-186.16707191 158.60223894 -183.03875129 156.21703649 -179.85546875 153.828125 C-177.73061517 152.18667014 -177.73061517 152.18667014 -175.71484375 150.05859375 C-173.54618154 147.92555638 -171.6670369 147.1640521 -168.8125 146.1875 C-168.1525 145.8575 -167.4925 145.5275 -166.8125 145.1875 C-165.62275581 141.61826744 -165.68819975 138.39696705 -165.71484375 134.68457031 C-165.71630402 133.92128418 -165.71776428 133.15799805 -165.7192688 132.37158203 C-165.72307746 130.71012987 -165.72919683 129.04868178 -165.73733521 127.38724518 C-165.75015137 124.73429049 -165.75663092 122.08138625 -165.76147461 119.42840576 C-165.77482426 112.82024571 -165.79867768 106.21213176 -165.82287598 99.60400391 C-165.86753737 87.20858488 -165.88393746 74.81405875 -165.82171631 62.41867065 C-165.81310991 60.33515391 -165.8111004 58.25174451 -165.81103516 56.16821289 C-165.80168872 52.87626368 -165.75418397 49.58807989 -165.6875 46.296875 C-165.69015869 45.39543762 -165.69281738 44.49400024 -165.69555664 43.56524658 C-165.62226121 41.28207093 -165.49840833 39.36524091 -164.8125 37.1875 C-159.43553872 32.36209729 -152.05153393 30.20662906 -145.375 27.625 C-144.71187805 27.36726807 -144.0487561 27.10953613 -143.36553955 26.84399414 C-120.2242115 17.92140922 -95.84192899 10.75723215 -71.328125 6.87109375 C-67.71928294 6.40390853 -67.71928294 6.40390853 -64.8125 4.1875 C-63.8225 4.5175 -62.8325 4.8475 -61.8125 5.1875 C-59.61165635 5.01093944 -57.41723375 4.75018169 -55.23046875 4.4453125 C-54.57983963 4.35748505 -53.92921051 4.26965759 -53.25886536 4.1791687 C-51.17162973 3.89676106 -49.08578673 3.60540284 -47 3.3125 C-31.32237337 1.12961018 -15.83228889 -0.01566067 0 0 Z M-54.625 57.3125 C-55.53185547 57.49425781 -56.43871094 57.67601562 -57.37304688 57.86328125 C-59.52145321 58.29523596 -61.66732503 58.73977351 -63.8125 59.1875 C-63.8125 60.1775 -63.8125 61.1675 -63.8125 62.1875 C-64.781875 62.001875 -65.75125 61.81625 -66.75 61.625 C-67.760625 61.480625 -68.77125 61.33625 -69.8125 61.1875 C-70.1425 61.5175 -70.4725 61.8475 -70.8125 62.1875 C-72.45381453 62.32769112 -74.09557165 62.46365498 -75.73864746 62.5814209 C-84.43818466 63.26789944 -92.20335344 65.41211189 -100.43359375 68.27734375 C-101.53344604 68.65242065 -102.63329834 69.02749756 -103.76647949 69.41394043 C-106.45124424 70.33074274 -109.13302854 71.25536479 -111.8125 72.1875 C-111.83565319 84.8960265 -111.85343032 97.604548 -111.86431217 110.31309128 C-111.86953446 116.21394342 -111.87662031 122.11478115 -111.88793945 128.015625 C-111.89879148 133.70846956 -111.90478177 139.40130025 -111.90737724 145.09415436 C-111.9092273 147.26789824 -111.91283991 149.44164135 -111.91823006 151.61537933 C-111.92547115 154.65603792 -111.92648963 157.69663889 -111.92602539 160.73730469 C-111.9314183 162.0902916 -111.9314183 162.0902916 -111.93692017 163.47061157 C-111.93485817 164.7157402 -111.93485817 164.7157402 -111.93275452 165.98602295 C-111.93367631 166.70502148 -111.9345981 167.42402 -111.93554783 168.16480637 C-111.8069443 170.27882617 -111.38903286 172.15358128 -110.8125 174.1875 C-111.4725 174.1875 -112.1325 174.1875 -112.8125 174.1875 C-112.8125 174.8475 -112.8125 175.5075 -112.8125 176.1875 C-113.63363281 176.41953125 -114.45476562 176.6515625 -115.30078125 176.890625 C-119.54537326 178.45814952 -123.16123584 180.56517323 -127 182.9375 C-127.77883545 183.41775635 -128.5576709 183.8980127 -129.36010742 184.39282227 C-143.61204518 193.32999566 -156.82048797 203.38890752 -168.8125 215.1875 C-169.73675781 216.07695312 -170.66101563 216.96640625 -171.61328125 217.8828125 C-173.74607737 220.11789192 -174.4777192 221.17447282 -174.8125 224.1875 C-176.4625 224.5175 -178.1125 224.8475 -179.8125 225.1875 C-179.8125 225.8475 -179.8125 226.5075 -179.8125 227.1875 C-180.4725 227.1875 -181.1325 227.1875 -181.8125 227.1875 C-184.56229249 230.14881499 -187.00025598 233.36923907 -189.50195312 236.54150391 C-190.76763103 238.13114631 -192.06304266 239.69697404 -193.359375 241.26171875 C-199.22621021 248.40404821 -204.38883453 255.90538984 -209.375 263.6875 C-210.287052 265.10349487 -210.287052 265.10349487 -211.2175293 266.5480957 C-216.03891187 273.81883537 -216.03891187 273.81883537 -217.8125 282.1875 C-218.41626465 282.60402832 -219.0200293 283.02055664 -219.64208984 283.44970703 C-222.41785017 285.6721887 -223.19451401 287.71323391 -224.5390625 290.9921875 C-225.0134375 292.13300781 -225.4878125 293.27382813 -225.9765625 294.44921875 C-226.45867187 295.64160156 -226.94078125 296.83398438 -227.4375 298.0625 C-227.92734375 299.24714844 -228.4171875 300.43179688 -228.921875 301.65234375 C-230.23133598 304.82581886 -231.52746856 308.00406588 -232.8125 311.1875 C-233.17263184 311.9727002 -233.53276367 312.75790039 -233.90380859 313.56689453 C-235.19537714 316.99834329 -235.19537714 316.99834329 -235.8125 324.1875 C-221.6225 324.1875 -207.4325 324.1875 -192.8125 324.1875 C-190.5025 319.2375 -188.1925 314.2875 -185.8125 309.1875 C-184.47248541 306.44859497 -183.12936257 303.71827571 -181.75 301 C-181.07516238 299.66684805 -180.40068681 298.33351278 -179.7265625 297 C-179.40333008 296.360625 -179.08009766 295.72125 -178.74707031 295.0625 C-177.85930963 293.28141274 -177.00294651 291.48477716 -176.1484375 289.6875 C-173.55548037 284.26223586 -171.31597784 280.26207519 -166.8125 276.1875 C-165.54281896 274.64095019 -164.29519267 273.07619004 -163.0625 271.5 C-159.41910468 266.86231932 -155.53076909 262.52186835 -151.5 258.21875 C-149.59949344 256.37123049 -149.59949344 256.37123049 -149.8125 254.1875 C-149.1525 254.1875 -148.4925 254.1875 -147.8125 254.1875 C-146.64376257 252.77814015 -145.47832475 251.36593526 -144.328125 249.94140625 C-141.48330676 246.64933566 -138.15364044 243.96059493 -134.8125 241.1875 C-134.30992676 240.76194824 -133.80735352 240.33639648 -133.28955078 239.89794922 C-117.41287172 226.49543655 -100.14198852 216.42039651 -81.4387207 207.4609375 C-79.16664956 206.35922484 -76.90623302 205.23830558 -74.64836121 204.10791016 C-73.92955874 203.74815094 -73.21075628 203.38839172 -72.47017193 203.01773071 C-71.92314019 202.74375458 -71.37610846 202.46977844 -70.8125 202.1875 C-70.80663376 200.97893845 -70.80076752 199.77037689 -70.79472351 198.52519226 C-70.73757659 187.15041456 -70.66485725 175.77582952 -70.57678509 164.40124798 C-70.5320067 158.55307574 -70.49276709 152.70497438 -70.46606445 146.85668945 C-70.44010597 141.21557533 -70.39975664 135.57473287 -70.34931374 129.93378639 C-70.33259447 127.77879012 -70.32111182 125.62374682 -70.31488609 123.46869469 C-70.30529997 120.45629591 -70.2773067 117.44460014 -70.24487305 114.43237305 C-70.24630814 113.53613724 -70.24774323 112.63990143 -70.2492218 111.71650696 C-70.23668365 110.89621002 -70.22414551 110.07591309 -70.21122742 109.23075867 C-70.20661845 108.51821269 -70.20200949 107.80566671 -70.19726086 107.07152843 C-69.69804331 104.62704886 -68.73633484 103.72706428 -66.8125 102.1875 C-64.90234375 101.72851562 -64.90234375 101.72851562 -62.75 101.59375 C-59.43067729 101.32519638 -56.16686904 100.9775878 -52.875 100.46875 C-52.04226563 100.34113281 -51.20953125 100.21351563 -50.3515625 100.08203125 C-49.51367188 99.95183594 -48.67578125 99.82164062 -47.8125 99.6875 C-31.29126546 97.12035432 -31.29126546 97.12035432 -23.53125 97.16210938 C-22.64373047 97.16577515 -21.75621094 97.16944092 -20.84179688 97.17321777 C-20.17212891 97.17793091 -19.50246094 97.18264404 -18.8125 97.1875 C-18.7970388 98.91304359 -18.7970388 98.91304359 -18.78126526 100.67344666 C-18.68370916 111.48955659 -18.58099244 122.3056067 -18.47316074 133.12161922 C-18.41788471 138.68286549 -18.36445737 144.24411696 -18.31518555 149.80541992 C-18.26761085 155.1676209 -18.21527082 160.52975573 -18.15955925 165.89187813 C-18.13910435 167.94248378 -18.12039658 169.99310759 -18.10342598 172.04374504 C-18.07945112 174.9054512 -18.0493875 177.76703107 -18.01782227 180.62866211 C-18.0120668 181.48533478 -18.00631134 182.34200745 -18.00038147 183.22463989 C-18.31760072 187.01424975 -18.31760072 187.01424975 -16.8125 190.1875 C-13.85544679 190.27618299 -10.92184944 190.30270296 -7.96484375 190.28515625 C-7.0784169 190.2837413 -6.19199005 190.28232635 -5.27870178 190.28086853 C-2.43576746 190.27525215 0.40708931 190.26269691 3.25 190.25 C5.17252491 190.24498711 7.09505104 190.24042384 9.01757812 190.23632812 C13.74091549 190.22527741 18.46419458 190.20800183 23.1875 190.1875 C23.32056212 182.06579009 23.45106743 173.94404418 23.57865143 165.82224655 C23.63802146 162.04749341 23.69814584 158.27275603 23.76025391 154.49804688 C24.07944275 135.05890644 24.26391283 115.62986242 24.1875 96.1875 C24.8737999 96.25977814 25.56009979 96.33205627 26.26719666 96.40652466 C27.16765213 96.49940765 28.0681076 96.59229065 28.99584961 96.68798828 C29.88839951 96.78089142 30.7809494 96.87379456 31.70054626 96.96951294 C34.40905758 97.20692002 37.03537056 97.18994739 39.75 97.0625 C44.21569984 97.01896254 47.46932595 97.77704324 51.609375 99.34765625 C54.75429775 100.37213866 57.86272083 100.88809943 61.125 101.4375 C102.91388883 108.7759872 140.6433819 126.66558273 176.1875 149.1875 C180.49710905 146.87865724 183.75084849 143.88669812 187.14453125 140.42578125 C187.69235764 139.87512497 188.24018402 139.32446869 188.80461121 138.75712585 C190.54118793 137.00941693 192.27065297 135.25486001 194 133.5 C195.18117666 132.30878456 196.3628126 131.11802434 197.54492188 129.92773438 C200.43112357 127.01956472 203.31097065 124.10523583 206.1875 121.1875 C204.72021073 117.51702099 202.87612645 115.97079719 199.62109375 113.7890625 C198.67395508 113.15194336 197.72681641 112.51482422 196.75097656 111.85839844 C195.7194043 111.18325195 194.68783203 110.50810547 193.625 109.8125 C192.55088867 109.10641602 191.47677734 108.40033203 190.37011719 107.67285156 C156.38787327 85.51676434 117.06406898 66.143297 76.1875 62.1875 C74.51579127 61.88045146 72.8454309 61.56187149 71.1875 61.1875 C71.1875 60.5275 71.1875 59.8675 71.1875 59.1875 C67.6278415 58.48470597 64.06445974 57.80298575 60.5 57.125 C59.49259766 56.92583984 58.48519531 56.72667969 57.44726562 56.52148438 C56.47080078 56.33779297 55.49433594 56.15410156 54.48828125 55.96484375 C53.14503784 55.70562134 53.14503784 55.70562134 51.7746582 55.44116211 C49.17163757 55.05006256 49.17163757 55.05006256 46.60620117 55.76391602 C43.62654738 56.2857389 42.82656082 55.52581413 40.1875 54.1875 C33.42871403 52.77051121 26.3230575 53.02683322 19.453125 53.01953125 C17.78234894 53.01453865 17.78234894 53.01453865 16.07781982 53.00944519 C13.72457285 53.00440178 11.37131878 53.00203606 9.01806641 53.00219727 C5.48978212 53.00003208 1.96182198 52.98190739 -1.56640625 52.96289062 C-19.43154565 52.91733452 -37.09407154 53.61745653 -54.625 57.3125 Z M-276.8125 195.1875 C-281.19805881 200.3729406 -283.61352978 204.47326679 -284.8125 211.1875 C-285.71790527 211.30726196 -285.71790527 211.30726196 -286.64160156 211.42944336 C-289.54004886 212.44155299 -290.06567758 213.66005538 -291.546875 216.31640625 C-292.03454346 217.17862793 -292.52221191 218.04084961 -293.0246582 218.92919922 C-293.532146 219.86006348 -294.03963379 220.79092773 -294.5625 221.75 C-295.35756958 223.17723389 -295.35756958 223.17723389 -296.16870117 224.63330078 C-300.62887445 232.7007382 -304.83675751 240.87203859 -308.8125 249.1875 C-309.27414551 250.14197021 -309.27414551 250.14197021 -309.74511719 251.11572266 C-317.66503294 266.04579743 -317.66503294 266.04579743 -320.8125 282.1875 C-321.51171875 284.1875 -321.51171875 284.1875 -322.5 286.1875 C-326.94935008 295.74886931 -330.19107152 304.94848565 -332.0703125 315.34765625 C-332.79732946 319.10901241 -333.74130299 322.74285399 -334.75 326.4375 C-336.68291586 333.79191801 -337.87451958 341.23437811 -339 348.75 C-339.16685303 349.84924805 -339.33370605 350.94849609 -339.50561523 352.08105469 C-341.5894671 366.55337908 -341.9990883 380.943321 -341.99780273 395.53710938 C-341.99998054 398.2879201 -342.01819128 401.0383226 -342.03710938 403.7890625 C-342.07671518 416.35952541 -341.25661646 428.70317783 -339.8125 441.1875 C-339.66183075 442.49156548 -339.66183075 442.49156548 -339.50811768 443.82197571 C-338.15748613 455.31579665 -335.97901544 466.5433122 -333.375 477.8125 C-333.08665283 479.06925537 -332.79830566 480.32601074 -332.5012207 481.62084961 C-330.73934223 489.02981242 -328.57041498 496.09350469 -325.8125 503.1875 C-325.28926952 504.57614411 -324.76764494 505.965394 -324.24732971 507.35513306 C-323.97830117 508.07343103 -323.70927263 508.79172901 -323.43209171 509.53179359 C-323.22762645 510.07817671 -323.02316118 510.62455982 -322.8125 511.1875 C-321.55604675 511.19114563 -320.29959351 511.19479126 -319.00506592 511.19854736 C-307.17437543 511.23546026 -295.34394613 511.2931924 -283.51345444 511.37140274 C-277.43099627 511.41094165 -271.34868427 511.44309873 -265.26611328 511.45849609 C-259.39801268 511.4736203 -253.53031376 511.50799071 -247.66239166 511.55580902 C-245.4216994 511.57066654 -243.1809498 511.57854351 -240.94020844 511.57938385 C-237.80572997 511.58174207 -234.67237198 511.60873009 -231.53808594 511.64160156 C-230.60804245 511.6365712 -229.67799896 511.63154083 -228.71977234 511.62635803 C-222.41841495 511.72885622 -222.41841495 511.72885622 -219.27949524 514.10484314 C-217.92110958 516.03330966 -216.69968645 517.89123845 -215.62109375 519.98828125 C-215.04838745 521.0721814 -215.04838745 521.0721814 -214.46411133 522.17797852 C-214.06345459 522.94424561 -213.66279785 523.7105127 -213.25 524.5 C-208.80779082 532.74695256 -203.75087251 540.22368286 -198.02294922 547.62304688 C-196.96213778 548.99409966 -195.91902085 550.37880553 -194.87890625 551.765625 C-190.51571069 557.52947688 -185.73793669 562.89933735 -180.8125 568.1875 C-180.03132813 569.04214844 -180.03132813 569.04214844 -179.234375 569.9140625 C-177.72169438 571.4385203 -177.72169438 571.4385203 -174.8125 572.1875 C-173.625 574.75 -173.625 574.75 -172.8125 577.1875 C-172.1525 577.1875 -171.4925 577.1875 -170.8125 577.1875 C-170.8125 577.8475 -170.8125 578.5075 -170.8125 579.1875 C-168.39737758 581.76945653 -165.52987617 583.93378802 -162.8125 586.1875 C-162.23838379 586.66719238 -161.66426758 587.14688477 -161.07275391 587.64111328 C-144.42626206 601.96232644 -144.42626206 601.96232644 -124.8125 611.1875 C-124.4825 612.1775 -124.1525 613.1675 -123.8125 614.1875 C-120.71043156 616.38439799 -117.25144505 618.0128335 -113.875 619.75 C-112.86332764 620.27432617 -111.85165527 620.79865234 -110.80932617 621.33886719 C-102.9192128 625.32877117 -94.87315575 628.76004125 -86.625 631.9375 C-85.50939697 632.36748291 -84.39379395 632.79746582 -83.24438477 633.24047852 C-77.19886299 635.53845122 -77.19886299 635.53845122 -70.8125 636.1875 C-70.8125 621.9975 -70.8125 607.8075 -70.8125 593.1875 C-74.07125 591.82625 -77.33 590.465 -80.6875 589.0625 C-87.27469752 586.26892119 -93.63992855 583.46708427 -99.65625 579.55859375 C-102.01510032 578.05867262 -104.44507479 576.82703926 -106.9375 575.5625 C-117.97573178 569.59715772 -127.94827542 561.3797418 -136.9921875 552.734375 C-138.66837353 550.97164884 -138.66837353 550.97164884 -140.8125 551.1875 C-140.8125 550.5275 -140.8125 549.8675 -140.8125 549.1875 C-141.4725 549.1875 -142.1325 549.1875 -142.8125 549.1875 C-142.8125 548.5275 -142.8125 547.8675 -142.8125 547.1875 C-143.4725 547.1875 -144.1325 547.1875 -144.8125 547.1875 C-144.8125 546.5275 -144.8125 545.8675 -144.8125 545.1875 C-145.4725 545.1875 -146.1325 545.1875 -146.8125 545.1875 C-147.04066406 544.63707031 -147.26882813 544.08664062 -147.50390625 543.51953125 C-149.1921927 540.51085361 -151.35513839 538.35919647 -153.75 535.875 C-158.68448194 530.65772319 -162.96882322 525.12837597 -167.10717773 519.2644043 C-168.9726439 516.63305965 -170.73696505 514.26290173 -173.02734375 511.9765625 C-175.55668001 509.44169159 -176.47404071 506.47280916 -177.8125 503.1875 C-178.4725 502.5275 -179.1325 501.8675 -179.8125 501.1875 C-180.453125 499.4453125 -180.453125 499.4453125 -181.0625 497.3125 C-182.63054427 492.34435974 -184.88872743 487.87872449 -187.3125 483.27734375 C-189.0547311 479.68852916 -190.41174368 475.9228502 -191.8125 472.1875 C-224.4825 471.8575 -257.1525 471.5275 -290.8125 471.1875 C-295.64583333 453.0625 -295.64583333 453.0625 -296.8125 446.1875 C-296.998125 445.10984375 -297.18375 444.0321875 -297.375 442.921875 C-298.67419789 434.72971053 -298.8125 427.74127885 -298.8125 419.1875 C-267.7925 418.8575 -236.7725 418.5275 -204.8125 418.1875 C-205.1425 408.6175 -205.4725 399.0475 -205.8125 389.1875 C-205.4825 387.5375 -205.1525 385.8875 -204.8125 384.1875 C-204.8125 381.8775 -204.8125 379.5675 -204.8125 377.1875 C-251.3425 376.6925 -251.3425 376.6925 -298.8125 376.1875 C-298.8125 364.91331602 -298.8125 364.91331602 -298.11328125 360.078125 C-297.88125 358.46780396 -297.88125 358.46780396 -297.64453125 356.82495117 C-297.47308594 355.70709229 -297.30164063 354.5892334 -297.125 353.4375 C-296.94710937 352.26098877 -296.76921875 351.08447754 -296.5859375 349.87231445 C-294.26813282 335.06533893 -291.0280613 320.48466798 -286.609375 306.16015625 C-285.72293059 302.85337096 -285.27665222 299.57661146 -284.8125 296.1875 C-284.3175 294.7025 -284.3175 294.7025 -283.8125 293.1875 C-283.1525 293.1875 -282.4925 293.1875 -281.8125 293.1875 C-281.61914062 292.51203125 -281.42578125 291.8365625 -281.2265625 291.140625 C-280.96617187 290.24859375 -280.70578125 289.3565625 -280.4375 288.4375 C-280.18226563 287.55578125 -279.92703125 286.6740625 -279.6640625 285.765625 C-278.87956967 283.39055495 -277.97966989 281.3934912 -276.8125 279.1875 C-275.8906901 277.34388021 -274.96890199 275.5002495 -274.04736328 273.65649414 C-273.33427303 272.2308123 -272.62037395 270.8055348 -271.90576172 269.38061523 C-270.42818521 266.4324163 -268.95511512 263.48443422 -267.52734375 260.51171875 C-262.09048882 249.22878325 -255.70612628 238.06979393 -247.89453125 228.265625 C-246.62231378 226.24331671 -246.62231378 226.24331671 -246.90576172 223.92773438 C-248.14081549 220.19530477 -250.49198023 217.95361975 -253.23828125 215.265625 C-254.05428047 214.44744293 -254.05428047 214.44744293 -254.88676453 213.61273193 C-256.03614797 212.46500456 -257.19047328 211.32220762 -258.34936523 210.18408203 C-260.12072889 208.44170122 -261.8726543 206.6813891 -263.62304688 204.91796875 C-264.74368202 203.80357053 -265.86539162 202.69025152 -266.98828125 201.578125 C-267.51134354 201.05212708 -268.03440582 200.52612915 -268.57331848 199.98419189 C-272.140189 196.5077481 -272.140189 196.5077481 -276.8125 195.1875 Z M235.25 236.6875 C230.68435239 242.76116333 230.47438278 248.74627686 231.1875 256.1875 C233.01279047 262.88410709 237.63308791 267.27883964 243.1875 271.1875 C248.78027035 273.92438762 254.83317146 274.29022269 260.7421875 272.34765625 C266.86687606 269.58316916 271.50506426 265.85191951 275.1875 260.1875 C277.25757445 254.25570772 276.8369675 247.35239166 275.0625 241.4375 C271.94720916 236.03766254 268.51163979 230.80969415 262.3671875 228.625 C251.19364994 226.38228278 242.50501975 227.79094043 235.25 236.6875 Z M-46.8125 250.1875 C-47.56660156 250.43435547 -48.32070313 250.68121094 -49.09765625 250.93554688 C-51.34522566 251.68283518 -53.58023253 252.45827099 -55.8125 253.25 C-56.82860352 253.59961792 -56.82860352 253.59961792 -57.86523438 253.95629883 C-60.76747389 255.04012739 -62.51785763 255.73993184 -64.25 258.37109375 C-64.5284375 259.27021484 -64.5284375 259.27021484 -64.8125 260.1875 C-65.40168213 259.99115967 -65.99086426 259.79481934 -66.59790039 259.5925293 C-70.32019744 258.91175642 -73.13392611 261.16834392 -76.25 263 C-76.94996094 263.40436279 -77.64992188 263.80872559 -78.37109375 264.2253418 C-83.195526 267.07728482 -87.82377138 270.14498659 -92.3125 273.5 C-92.86993896 273.90774658 -93.42737793 274.31549316 -94.00170898 274.7355957 C-95.72441451 276.02716047 -95.72441451 276.02716047 -97.8125 278.1875 C-97.8125 279.5075 -97.8125 280.8275 -97.8125 282.1875 C-99.05 282.4659375 -99.05 282.4659375 -100.3125 282.75 C-119.13574261 290.48097464 -133.46106784 318.62383664 -140.9597168 336.3269043 C-147.71331127 352.86932757 -153.46850726 371.14730039 -152.8125 389.1875 C-152.8125 391.51068269 -152.83548666 393.83453199 -152.91796875 396.15625 C-153.76032447 432.41765833 -140.19693171 471.41437386 -115.16796875 497.99609375 C-112.81868384 500.29938787 -112.81868384 500.29938787 -109.8125 502.1875 C-109.11930529 503.50723608 -108.45360464 504.84168907 -107.8125 506.1875 C-99.22196647 516.87129644 -82.74760871 529.98869606 -69.71875 534.18359375 C-66.8125 535.1875 -66.8125 535.1875 -64.4921875 537.09375 C-60.91516989 539.8886209 -57.1899837 541.18702324 -52.9375 542.6875 C-51.667854 543.14141113 -51.667854 543.14141113 -50.37255859 543.60449219 C-25.48288044 552.3559788 -0.68104875 555.11273275 25.5 551.875 C26.46083496 551.75753418 27.42166992 551.64006836 28.41162109 551.51904297 C33.85884073 550.76561195 38.21209396 549.50018874 43.1875 547.1875 C45.49609375 546.66796875 45.49609375 546.66796875 47.625 546.375 C55.12524694 545.03774667 62.12959766 541.97213144 69.1875 539.1875 C69.1875 538.1975 69.1875 537.2075 69.1875 536.1875 C68.5275 536.1875 67.8675 536.1875 67.1875 536.1875 C67.1875 535.5275 67.1875 534.8675 67.1875 534.1875 C66.5275 534.1875 65.8675 534.1875 65.1875 534.1875 C64.93154053 533.60701904 64.67558105 533.02653809 64.41186523 532.4284668 C63.06817554 529.96909936 61.57354067 528.31487213 59.59765625 526.33203125 C58.89576172 525.62755859 58.19386719 524.92308594 57.47070312 524.19726562 C56.73787109 523.47216797 56.00503906 522.74707031 55.25 522 C54.52103516 521.26330078 53.79207031 520.52660156 53.04101562 519.76757812 C52.33783203 519.06697266 51.63464844 518.36636719 50.91015625 517.64453125 C50.26828369 517.00491455 49.62641113 516.36529785 48.96508789 515.70629883 C47.15647838 513.96836031 47.15647838 513.96836031 44.1875 513.1875 C42.84418346 511.19419158 41.51155988 509.19365134 40.1875 507.1875 C38.59227874 505.27814336 38.59227874 505.27814336 36.1875 504.1875 C33.49002613 504.43759692 31.17190516 504.8174162 28.5625 505.4375 C27.11779405 505.74376076 25.67247795 506.04715758 24.2265625 506.34765625 C23.52950195 506.49605957 22.83244141 506.64446289 22.11425781 506.79736328 C5.17630749 510.22701921 -12.16046553 507.61407508 -28.8125 503.9375 C-30.12045532 503.66740112 -30.12045532 503.66740112 -31.45483398 503.3918457 C-36.87350421 502.12515032 -40.55717495 500.27533131 -44.86083984 496.76123047 C-48.08450534 494.16181243 -51.60767932 492.05049107 -55.125 489.875 C-56.1778418 489.21274414 -56.1778418 489.21274414 -57.25195312 488.53710938 C-60.12606402 486.74798219 -62.58198812 485.26433729 -65.8125 484.1875 C-67.35546875 482.62109375 -67.35546875 482.62109375 -69 480.625 C-71.41697215 477.75800584 -73.89012359 475.12575461 -76.625 472.5625 C-82.18360282 467.0685321 -86.49609239 460.67030367 -90.8125 454.1875 C-91.46605469 453.20652344 -92.11960937 452.22554687 -92.79296875 451.21484375 C-102.43179138 435.74591648 -107.0051023 417.62839919 -107.43481445 399.54541016 C-107.45761475 398.76472168 -107.48041504 397.9840332 -107.50390625 397.1796875 C-107.51623291 396.48214355 -107.52855957 395.78459961 -107.54125977 395.06591797 C-107.72292086 392.8559348 -107.72292086 392.8559348 -109.8125 390.1875 C-109.1525 390.1875 -108.4925 390.1875 -107.8125 390.1875 C-107.57466797 388.39119141 -107.57466797 388.39119141 -107.33203125 386.55859375 C-103.19315499 356.96287737 -90.06907403 333.0025241 -68.02734375 312.66015625 C-66.49432374 311.11997973 -66.49432374 311.11997973 -66.8125 308.1875 C-66.11898437 308.27257812 -65.42546875 308.35765625 -64.7109375 308.4453125 C-60.85146576 308.10201717 -58.49814011 306.24898169 -55.4375 304.0625 C-38.85298803 292.8468052 -19.2965028 287.99638617 0.5625 287.9375 C2.28666138 287.93157837 2.28666138 287.93157837 4.0456543 287.92553711 C12.26596792 287.98132459 19.88781884 288.82197516 27.89453125 290.62890625 C31.89032036 291.30672101 34.58364317 290.98942842 38.1875 289.1875 C38.1875 288.5275 38.1875 287.8675 38.1875 287.1875 C38.8475 287.1875 39.5075 287.1875 40.1875 287.1875 C40.1875 286.5275 40.1875 285.8675 40.1875 285.1875 C40.8475 285.1875 41.5075 285.1875 42.1875 285.1875 C42.5175 284.1975 42.8475 283.2075 43.1875 282.1875 C45.18121825 280.84479179 47.1809562 279.51096506 49.1875 278.1875 C49.1875 277.5275 49.1875 276.8675 49.1875 276.1875 C49.8475 276.1875 50.5075 276.1875 51.1875 276.1875 C51.1875 275.5275 51.1875 274.8675 51.1875 274.1875 C51.8475 274.1875 52.5075 274.1875 53.1875 274.1875 C53.1875 273.5275 53.1875 272.8675 53.1875 272.1875 C53.8475 272.1875 54.5075 272.1875 55.1875 272.1875 C55.1875 271.5275 55.1875 270.8675 55.1875 270.1875 C56.1775 269.8575 57.1675 269.5275 58.1875 269.1875 C58.1875 268.5275 58.1875 267.8675 58.1875 267.1875 C58.8475 267.1875 59.5075 267.1875 60.1875 267.1875 C60.1875 266.5275 60.1875 265.8675 60.1875 265.1875 C60.8475 265.1875 61.5075 265.1875 62.1875 265.1875 C62.1875 264.5275 62.1875 263.8675 62.1875 263.1875 C62.8475 263.1875 63.5075 263.1875 64.1875 263.1875 C64.1875 262.5275 64.1875 261.8675 64.1875 261.1875 C65.5075 260.5275 66.8275 259.8675 68.1875 259.1875 C68.1875 258.1975 68.1875 257.2075 68.1875 256.1875 C56.87240392 251.66744879 56.87240392 251.66744879 45.109375 248.61328125 C43.09264216 248.16648475 41.34051746 247.48566642 39.4375 246.6875 C13.66398996 236.56783962 -21.24696953 241.67347472 -46.8125 250.1875 Z M160.8125 466.625 C156.83686247 471.745794 155.66926518 476.01702881 155.8046875 482.48828125 C156.65510856 488.4846175 159.49900995 493.4567977 163.6875 497.75 C170.15001907 501.46594846 179.74122704 501.32553415 186.8125 499.515625 C188.63854261 498.82433744 190.420829 498.01887459 192.1875 497.1875 C192.1875 496.5275 192.1875 495.8675 192.1875 495.1875 C192.8475 495.1875 193.5075 495.1875 194.1875 495.1875 C194.83584654 493.917947 195.48107815 492.64680294 196.125 491.375 C196.48464844 490.66730469 196.84429688 489.95960938 197.21484375 489.23046875 C199.63836677 484.14009712 200.05252583 479.2724114 198.5390625 473.875 C195.97338148 467.38404632 192.12293724 463.05876182 185.796875 460.05078125 C176.2898898 456.9055062 167.42721606 459.32490372 160.8125 466.625 Z M216.1875 688.1875 C211.13841488 694.04728329 209.80809967 698.89767505 209.91015625 706.5859375 C210.3486295 710.69894008 211.69101341 713.89702379 214.1875 717.1875 C217.14599927 719.52164647 217.14599927 719.52164647 220.1875 721.1875 C220.72375 721.744375 221.26 722.30125 221.8125 722.875 C224.99948507 725.91712212 229.85615203 725.39827432 234 725.34375 C236.75441736 725.1470059 238.79243507 724.56647678 241.1875 723.1875 C241.8475 722.1975 242.5075 721.2075 243.1875 720.1875 C243.97125 719.960625 244.755 719.73375 245.5625 719.5 C248.96661422 717.79794289 249.93898455 716.08690548 251.44921875 712.65625 C253.20475269 706.78589312 253.33658524 701.0602131 251.046875 695.3359375 C247.90613508 689.73219627 244.61275703 685.52958615 238.28125 683.609375 C230.35985993 682.01327402 222.72507129 683.32622904 216.1875 688.1875 Z " fill="#151526" transform="translate(600.8125,149.8125)"/>
<path d="M0 0 C0.99 0.66 1.98 1.32 3 2 C5.76625155 2.54974318 5.76625155 2.54974318 8.94921875 2.859375 C10.17310303 3.00213867 11.3969873 3.14490234 12.65795898 3.29199219 C13.31287323 3.36591187 13.96778748 3.43983154 14.64254761 3.51599121 C45.939628 7.09739091 76.54231687 13.8225274 106.81713867 22.4777832 C109.11220153 23.1163347 109.11220153 23.1163347 112 23 C112.33 23.66 112.66 24.32 113 25 C114.68949335 25.80466522 114.68949335 25.80466522 116.76953125 26.4453125 C117.56617188 26.71375977 118.3628125 26.98220703 119.18359375 27.25878906 C120.48490234 27.68756348 120.48490234 27.68756348 121.8125 28.125 C129.14918843 30.60325278 136.34219386 33.29576697 143.5 36.25 C150.58188782 39.15648324 157.4643496 41.52962919 165 43 C165.33 44.32 165.66 45.64 166 47 C166.76570312 47.14888672 166.76570312 47.14888672 167.546875 47.30078125 C183.90462869 51.963262 199.34043907 62.75114246 213.63378906 71.63745117 C216.01447461 73.13248165 216.01447461 73.13248165 219 73.875 C222 75 222 75 224.21484375 77.2421875 C227.4176935 80.41359272 230.82136121 82.76603396 234.5625 85.25 C241.5372321 89.96647413 248.33005063 94.85785317 255 100 C255.54333984 100.41717285 256.08667969 100.8343457 256.64648438 101.26416016 C265.68709369 108.2198627 274.40341543 115.50478774 283 123 C283.62269775 123.53802246 284.24539551 124.07604492 284.88696289 124.63037109 C289.93557555 129.00993542 294.83138017 133.53360163 299.6875 138.125 C300.42033203 138.81464844 301.15316406 139.50429687 301.90820312 140.21484375 C304.94464439 143.07879106 307.96646184 145.94312145 310.8828125 148.9296875 C312.83775955 151.0750781 312.83775955 151.0750781 315.1875 152 C317 153 317 153 317.87109375 155.265625 C319.13458447 158.32598314 320.68025605 160.28194831 322.875 162.75 C323.55304687 163.52859375 324.23109375 164.3071875 324.9296875 165.109375 C327.11142782 167.10175673 328.22798644 167.33636116 331 168 C331.89982402 169.83425666 332.79026664 171.67354404 333.640625 173.53125 C335.25412036 176.46150594 337.19393922 178.77505674 339.375 181.3125 C391 241.41527778 391 241.41527778 391 261 C392.32 261.33 393.64 261.66 395 262 C395.06058594 262.77085937 395.12117188 263.54171875 395.18359375 264.3359375 C396.33734788 269.51403019 398.69702218 273.89915253 401.0625 278.625 C405.88911542 288.48730066 410.16915959 298.43916209 414.10009766 308.68701172 C414.9486597 310.86804177 415.8315144 313.03074362 416.73046875 315.19140625 C423.71503852 332.17842211 428.84137909 350.10934225 433.29785156 367.91040039 C433.89035885 370.18705943 433.89035885 370.18705943 436 372 C437.32 371.34 438.64 370.68 440 370 C439.67 371.65 439.34 373.3 439 375 C437.68 374.67 436.36 374.34 435 374 C435.144375 374.60328125 435.28875 375.2065625 435.4375 375.828125 C435.623125 376.62734375 435.80875 377.4265625 436 378.25 C436.185625 379.03890625 436.37125 379.8278125 436.5625 380.640625 C437 383 437 383 437 387 C437.99 387.33 438.98 387.66 440 388 C440.92715447 390.7814634 441.22694645 392.87209249 441.4296875 395.76953125 C441.50123047 396.72923828 441.57277344 397.68894531 441.64648438 398.67773438 C441.75959961 400.22944336 441.75959961 400.22944336 441.875 401.8125 C442.50250817 409.92146211 443.32487623 417.95231653 444.5 426 C451.11535067 471.83492967 449.43973181 517.87996229 443.40893555 563.65136719 C442.47678753 570.80487322 441.72223584 577.9049428 441.34594727 585.11083984 C440.96679219 588.27733329 440.09949982 591.0138616 439 594 C438.34 594 437.68 594 437 594 C436.85630981 595.03942749 436.85630981 595.03942749 436.7097168 596.09985352 C435.42623626 604.59880286 433.26450031 612.71041532 430.8125 620.9375 C430.6116983 621.61729919 430.41089661 622.29709839 430.20401001 622.99749756 C428.82319855 627.67133907 427.41764756 632.33720158 426 637 C425.54898926 638.48959229 425.54898926 638.48959229 425.08886719 640.00927734 C419.25469562 659.03147148 411.54358738 677.64376329 402.98486328 695.59326172 C401.97737242 698.05529565 401.50934611 700.39776019 401 703 C400.02181053 704.02134488 399.01767405 705.0179921 398 706 C396.68552684 708.25460723 395.44852667 710.49816435 394.25 712.8125 C393.90146973 713.4739502 393.55293945 714.13540039 393.19384766 714.81689453 C390.84410082 719.3000623 388.6008577 723.82930395 386.375 728.375 C384.08000804 732.99592764 381.65212342 737.279935 378.69921875 741.50390625 C376.95839619 744.06111456 375.34182743 746.67095784 373.72827148 749.30932617 C364.52865828 764.31286947 354.40563191 778.63133721 343.23046875 792.2265625 C341.03171951 794.75985893 341.03171951 794.75985893 340 797 C339.34 797 338.68 797 338 797 C337.73832031 797.556875 337.47664062 798.11375 337.20703125 798.6875 C333.83569644 805.14649744 329.76811212 810.56299068 324 815 C323.03526037 816.25028039 322.10051859 817.52396569 321.1875 818.8125 C318.4271989 822.65823201 315.2891567 825.5631669 311.63671875 828.5546875 C309.88339949 829.92118154 309.88339949 829.92118154 309 832 C308.34 832 307.68 832 307 832 C306.731875 832.598125 306.46375 833.19625 306.1875 833.8125 C305.00082594 835.99847854 303.90400887 837.41332594 302 839 C301.34 839 300.68 839 300 839 C300 839.66 300 840.32 300 841 C298.49609375 842.48046875 298.49609375 842.48046875 296.4375 844.1875 C293.60549069 846.58920401 290.90951818 849.03327878 288.3125 851.6875 C285.6876414 854.34831556 283.05099347 856.82071895 280 859 C279.34 859 278.68 859 278 859 C277.67 859.99 277.34 860.98 277 862 C276.34 862 275.68 862 275 862 C274.67 862.99 274.34 863.98 274 865 C272.60138439 865.9832059 271.19503012 866.95772624 269.74707031 867.86669922 C266.63181409 869.88752362 263.77683777 872.25039055 260.875 874.5625 C259.09747526 875.97206579 257.31921963 877.38064137 255.53808594 878.78564453 C254.25387377 879.79956062 252.97404481 880.81902525 251.6953125 881.83984375 C250 883 250 883 248 883 C247.67 883.99 247.34 884.98 247 886 C245.28515625 887.10546875 245.28515625 887.10546875 243.0625 888.1875 C238.33521749 890.67158157 234.40996142 893.74123518 230.3046875 897.13671875 C228.39674106 898.67924494 226.50161765 900.05653251 224.4375 901.375 C221.90826598 902.77001893 221.90826598 902.77001893 221 905 C220.45859375 905.12761719 219.9171875 905.25523437 219.359375 905.38671875 C215.99603465 906.2609645 213.21386827 908.05407822 210.25 909.8125 C206.3275049 912.11033213 202.44094174 914.33569461 198.3125 916.25 C194.98654236 917.68347541 194.98654236 917.68347541 193.5625 920.0625 C191.71248012 922.35652465 190.73944962 922.53633728 187.9609375 923.359375 C183.10117228 924.90463262 178.63484682 926.94614402 174.0625 929.1875 C167.517536 932.34005491 160.95009056 935.42193812 154.3125 938.375 C153.59521729 938.69621826 152.87793457 939.01743652 152.13891602 939.34838867 C147.48485673 941.41014836 142.78285413 943.26006827 138 945 C137.24227295 945.27763184 136.4845459 945.55526367 135.70385742 945.84130859 C132.46308064 947.02848133 129.22194862 948.21463267 125.97851562 949.39453125 C122.34630343 950.72546292 118.7565482 952.08095816 115.22265625 953.65625 C112.38893796 954.83782466 110.00108209 955.48224143 107 956 C104.95338589 956.56573073 102.91216165 957.15112356 100.875 957.75 C84.72416981 962.38604141 68.58579243 966.27473779 52.07080078 969.41357422 C49.19940575 969.96191981 46.33205839 970.52793228 43.46484375 971.09765625 C29.07368422 973.89961409 14.59454026 975.63973415 0 977 C-1.29380836 977.12609901 -1.29380836 977.12609901 -2.61375427 977.25474548 C-10.03288672 977.93502426 -17.38407213 978.16052008 -24.83203125 978.16796875 C-26.02567795 978.17129715 -27.21932465 978.17462555 -28.44914246 978.17805481 C-30.96438211 978.18308773 -33.47962836 978.18546427 -35.99487305 978.18530273 C-39.76427804 978.18747225 -43.53338162 978.20562081 -47.30273438 978.22460938 C-81.26370749 978.30297549 -81.26370749 978.30297549 -97 975 C-100.35180327 974.97159489 -103.68871199 975.06432243 -107.0390625 975.16015625 C-110 975 -110 975 -113 973 C-115.17958233 972.4571679 -115.17958233 972.4571679 -117.62890625 972.140625 C-118.56790771 971.99778076 -119.50690918 971.85493652 -120.47436523 971.70776367 C-121.49344971 971.55670166 -122.51253418 971.40563965 -123.5625 971.25 C-151.29252653 966.86296168 -178.33473875 959.44304376 -204.875 950.375 C-205.55145569 950.14511383 -206.22791138 949.91522766 -206.92486572 949.67837524 C-215.16394398 946.86664626 -223.12666881 943.71926531 -231 940 C-232.48053401 939.34191437 -233.96349603 938.68925479 -235.44921875 938.04296875 C-243.61321106 934.47163623 -251.63500024 930.7367566 -259.55957031 926.66015625 C-263.12469927 924.8512574 -266.61187798 923.34604799 -270.4375 922.1875 C-272.2009375 921.5996875 -272.2009375 921.5996875 -274 921 C-274.495 919.515 -274.495 919.515 -275 918 C-276.63972664 917.26957631 -278.31416837 916.61659869 -280 916 C-291.86321767 909.62901274 -303.11377989 902.31685991 -314.2734375 894.796875 C-317.47683752 892.68575178 -320.75495238 890.73099387 -324.0625 888.7890625 C-324.701875 888.40492188 -325.34125 888.02078125 -326 887.625 C-326.639375 887.24601563 -327.27875 886.86703125 -327.9375 886.4765625 C-330.58514708 884.58108789 -332.69671163 882.30328837 -335 880 C-337.55702182 877.79535428 -340.1818573 875.67839794 -342.8125 873.5625 C-343.48603516 873.01529297 -344.15957031 872.46808594 -344.85351562 871.90429688 C-348.99150183 868.55826975 -353.19741653 865.35708086 -357.5378418 862.27709961 C-358.26161011 861.6449353 -358.26161011 861.6449353 -359 861 C-359 860.34 -359 859.68 -359 859 C-359.80824219 858.66935547 -359.80824219 858.66935547 -360.6328125 858.33203125 C-363.79178343 856.5544585 -366.26249777 854.16509972 -368.875 851.6875 C-369.89193052 850.73168934 -370.91015826 849.77725695 -371.9296875 848.82421875 C-372.42952148 848.3554834 -372.92935547 847.88674805 -373.44433594 847.40380859 C-375.04414538 845.96016385 -376.70045111 844.61551915 -378.3828125 843.26953125 C-379.24648438 842.52058594 -380.11015625 841.77164063 -381 841 C-381 840.34 -381 839.68 -381 839 C-381.639375 838.773125 -382.27875 838.54625 -382.9375 838.3125 C-385 837 -385 837 -385.86450195 834.68579102 C-386 832 -386 832 -384.49291992 829.84350586 C-383.74631104 829.14104736 -382.99970215 828.43858887 -382.23046875 827.71484375 C-381.02100586 826.54791992 -381.02100586 826.54791992 -379.78710938 825.35742188 C-378.50030273 824.15956055 -378.50030273 824.15956055 -377.1875 822.9375 C-375.51005868 821.34693302 -373.83670204 819.75204432 -372.16796875 818.15234375 C-371.04297974 817.1003479 -371.04297974 817.1003479 -369.89526367 816.02709961 C-368.06752916 814.07222654 -367.15855336 812.37715657 -366 810 C-364.62799518 809.09648463 -363.25059635 808.1998081 -361.84375 807.3515625 C-358.55287062 804.93918058 -355.9536977 801.76626712 -353.24609375 798.73046875 C-351 797 -351 797 -348.22265625 797.23828125 C-347.12244141 797.61533203 -347.12244141 797.61533203 -346 798 C-346 798.66 -346 799.32 -346 800 C-345.4225 800.2578125 -344.845 800.515625 -344.25 800.78125 C-341.05965881 802.50935148 -338.65509676 804.89608267 -336 807.34375 C-334.09237339 809.06078616 -334.09237339 809.06078616 -331.90234375 810 C-329.62150174 811.19896418 -328.91865661 812.33014942 -327.5625 814.5 C-324.22780345 819.22920601 -319.96701927 822.33154244 -315.31860352 825.67382812 C-313.84853229 826.74173215 -312.42007959 827.86646466 -311 829 C-311 829.66 -311 830.32 -311 831 C-310.26007813 831.26167969 -309.52015625 831.52335938 -308.7578125 831.79296875 C-305.95625187 833.01914755 -304.18142798 834.32522718 -301.875 836.3125 C-287.97721855 847.68154311 -272.51666752 857.03419191 -257 866 C-256.22237305 866.45004395 -255.44474609 866.90008789 -254.64355469 867.36376953 C-246.47003391 872.06622467 -238.20318689 876.50890395 -229.6875 880.5625 C-228.98794189 880.89733398 -228.28838379 881.23216797 -227.56762695 881.57714844 C-224.81209931 882.85822412 -222.26167884 883.94946117 -219.26953125 884.52734375 C-217 885 -217 885 -215.28466797 886.3515625 C-212.40300818 888.43074255 -209.48594064 889.55593503 -206.17578125 890.84765625 C-205.51572586 891.10595718 -204.85567047 891.36425812 -204.1756134 891.63038635 C-173.36834411 903.61458582 -142.51337338 912.12436429 -110 918 C-109.67 917.34 -109.34 916.68 -109 916 C-108.34 916.66 -107.68 917.32 -107 918 C-104.12332214 918.44991323 -104.12332214 918.44991323 -100.75 918.59765625 C-99.5021875 918.67693359 -98.254375 918.75621094 -96.96875 918.83789062 C-95.00421875 918.94907227 -95.00421875 918.94907227 -93 919.0625 C-90.41644317 919.21634369 -87.83309307 919.37371293 -85.25 919.53515625 C-84.10015625 919.600979 -82.9503125 919.66680176 -81.765625 919.73461914 C-79 920 -79 920 -77 921 C-73.36613567 921.31713725 -69.73152308 921.51171036 -66.08984375 921.71875 C-63 922 -63 922 -62 923 C-58.92087441 923.10119282 -55.86464501 923.13968327 -52.78515625 923.1328125 C-51.85908066 923.13376923 -50.93300507 923.13472595 -49.97886658 923.13571167 C-48.01593966 923.13639362 -46.0530105 923.13453832 -44.09008789 923.13037109 C-41.07888737 923.12502907 -38.06783643 923.13031247 -35.05664062 923.13671875 C-33.1536455 923.13605785 -31.25065047 923.13477645 -29.34765625 923.1328125 C-28.44241714 923.13483673 -27.53717804 923.13686096 -26.60450745 923.13894653 C-25.3482682 923.13421829 -25.3482682 923.13421829 -24.06665039 923.12939453 C-22.9586483 923.12820114 -22.9586483 923.12820114 -21.82826233 923.12698364 C-19.90141554 923.11077644 -19.90141554 923.11077644 -18 922 C-10.30467193 920.77900795 -2.54658589 920.05777326 5.23046875 919.63671875 C23.56317325 918.62565527 41.08975557 915.86160966 59 912 C60.1039209 911.76265137 61.2078418 911.52530273 62.34521484 911.28076172 C87.98519743 906.68698458 87.98519743 906.68698458 110 895 C111.56427734 894.77957031 111.56427734 894.77957031 113.16015625 894.5546875 C117.24077105 893.96521924 120.68277986 892.73750715 124.4375 891.125 C125.15703857 890.82110352 125.87657715 890.51720703 126.61791992 890.20410156 C129.0854343 889.15114357 131.54356468 888.07854734 134 887 C135.38977051 886.39140137 135.38977051 886.39140137 136.80761719 885.77050781 C150.95416002 879.5328475 164.60315965 872.71116511 178 865 C178.92119629 864.47615723 179.84239258 863.95231445 180.79150391 863.41259766 C191.17803585 857.49577355 201.22345983 851.56779653 210.44140625 843.92578125 C212.91972791 842.06041853 215.14636856 841.13742629 218 840 C218.28875 839.195625 218.5775 838.39125 218.875 837.5625 C220 835 220 835 223.375 833.375 C224.57125 832.92125 225.7675 832.4675 227 832 C228.34631825 831.01755155 229.68441297 830.02323436 231 829 C231.66 829 232.32 829 233 829 C233 828.34 233 827.68 233 827 C234.55315386 825.62751319 236.16885684 824.32521299 237.8125 823.0625 C241.40146267 820.31800332 241.40146267 820.31800332 244.69921875 817.24609375 C246 816 246 816 248 816 C248 815.278125 248 814.55625 248 813.8125 C249.54093086 809.47863196 253.02048055 808.01298649 257 806 C257.99 805.67 258.98 805.34 260 805 C260 804.34 260 803.68 260 803 C261.3984375 801.66015625 261.3984375 801.66015625 263.375 800.0625 C269.57847103 794.80062725 275.47942313 788.78086531 280 782 C280.66 782 281.32 782 282 782 C282.66 780.35 283.32 778.7 284 777 C284.66 777 285.32 777 286 777 C286.33 776.01 286.66 775.02 287 774 C288.13181645 772.83388608 289.2703143 771.67367989 290.4375 770.54296875 C298.58913474 762.49322944 305.27323969 753.23184199 312 744 C312.54333984 743.25492188 313.08667969 742.50984375 313.64648438 741.7421875 C315.27336273 739.50113851 316.88896356 737.25245838 318.5 735 C318.99209961 734.31873047 319.48419922 733.63746094 319.99121094 732.93554688 C324.19345979 727.0019367 327.44521401 720.81276264 330 714 C330.99 714 331.98 714 333 714 C333.2475 713.360625 333.495 712.72125 333.75 712.0625 C335.40811572 708.00011649 337.2035584 704.00275094 339 700 C339.66 700 340.32 700 341 700 C341.25652344 699.32195313 341.51304687 698.64390625 341.77734375 697.9453125 C343.20764824 694.49978666 344.87142693 691.19691275 346.5625 687.875 C348.04629411 684.9189747 349.52338054 681.95961465 351 679 C351.35513672 678.29069336 351.71027344 677.58138672 352.07617188 676.85058594 C365.35524388 650.15843295 376.73116196 621.00487694 382.46337891 591.625 C383.01987946 588.90275527 383.69921266 586.23481151 384.40234375 583.546875 C386.09382419 576.83024956 387.36860573 570.07051329 388.5625 563.25 C388.78010986 562.00847168 388.99771973 560.76694336 389.22192383 559.48779297 C393.53555783 534.55260556 395.50965936 509.31308138 395 484 C395 482.68 395 481.36 395 480 C395.77896894 423.45736583 395.77896894 423.45736583 379 374 C378.62259888 372.15042263 378.27498331 370.29477571 377.9375 368.4375 C374.53702891 352.13524152 368.40516455 336.33204743 362 321 C361.44973456 319.62583441 360.90164675 318.2507953 360.35546875 316.875 C354.66410272 302.61979248 347.77356014 289.22056895 340.3125 275.8125 C339.49241455 274.32339111 339.49241455 274.32339111 338.65576172 272.80419922 C335.52442595 267.23858568 335.52442595 267.23858568 331.35546875 262.44921875 C328.43904202 259.41671533 327.52861672 256.48647599 326.0859375 252.58691406 C324.32985905 248.40359408 321.72737846 244.97352828 319 241.375 C318.42967041 240.60575195 317.85934082 239.83650391 317.27172852 239.04394531 C316.0949092 237.45968421 314.91335322 235.87893044 313.72705078 234.30175781 C312.10274853 232.13693995 310.49922025 229.95852859 308.90234375 227.7734375 C302.70591326 219.33639235 296.16749455 211.28837822 289.25439453 203.42919922 C288.22224574 202.25321654 287.20134207 201.06737365 286.18359375 199.87890625 C275.91807116 187.9153273 265.06639277 176.04949579 253.07421875 165.80078125 C251.59281554 164.5146666 250.13983243 163.19551619 248.70703125 161.85546875 C244.50080876 157.94516141 241.51913184 155.74996863 236 154 C235.71769531 153.23558594 235.43539062 152.47117188 235.14453125 151.68359375 C233.71812535 148.33908573 232.12103962 147.25921351 229.125 145.25 C227.82949219 144.36054688 227.82949219 144.36054688 226.5078125 143.453125 C224.16247988 141.90584563 224.16247988 141.90584563 221.8671875 141.609375 C220 141 220 141 218.70117188 138.69360352 C216.75768127 135.61631709 214.94741672 134.27685462 211.9140625 132.29296875 C210.90778809 131.62813477 209.90151367 130.96330078 208.86474609 130.27832031 C207.79562988 129.58834961 206.72651367 128.89837891 205.625 128.1875 C203.98072021 127.11193848 203.98072021 127.11193848 202.30322266 126.01464844 C199.20976625 123.99767627 196.10684696 121.9962619 193 120 C192.32517578 119.56187988 191.65035156 119.12375977 190.95507812 118.67236328 C170.23401514 105.24272264 147.75624952 94.36619585 125 84.875 C124.07380859 84.48417236 123.14761719 84.09334473 122.19335938 83.69067383 C121.32517578 83.33642334 120.45699219 82.98217285 119.5625 82.6171875 C118.41974609 82.14708252 118.41974609 82.14708252 117.25390625 81.66748047 C114.73979279 80.92294123 112.60822941 80.88097366 110 81 C109.67 80.01 109.34 79.02 109 78 C108.29327148 77.87326904 107.58654297 77.74653809 106.85839844 77.6159668 C103.90109087 76.97868571 101.13132872 76.11246592 98.265625 75.14453125 C82.65654775 69.95161719 67.07759797 65.52834164 51 62 C49.69790396 61.70318073 48.39581883 61.40631361 47.09375 61.109375 C38.64758482 59.28841278 30.10832852 58.06529734 21.5625 56.8125 C19.74721802 56.54348877 19.74721802 56.54348877 17.89526367 56.26904297 C11.85077073 55.41040015 6.09789801 54.90551529 0 55 C-0.66 54.67 -1.32 54.34 -2 54 C-14.37889346 52.57425887 -26.93552667 52.80115253 -39.375 52.8125 C-40.39268463 52.81243958 -41.41036926 52.81237915 -42.45889282 52.81231689 C-57.74281573 52.8252364 -72.7997476 53.30666347 -88 55 C-89.90345443 55.19458985 -91.80710324 55.3872872 -93.7109375 55.578125 C-98.14360167 56.02735216 -102.5723444 56.5039337 -107 57 C-107 57.66 -107 58.32 -107 59 C-108.25296875 58.95875 -109.5059375 58.9175 -110.796875 58.875 C-116.43858721 58.88379456 -121.73934257 59.85928552 -127.25 61 C-128.33498779 61.22365234 -129.41997559 61.44730469 -130.5378418 61.67773438 C-150.56389468 65.93489344 -169.94469712 71.75880387 -189.1875 78.6875 C-189.95671783 78.96335937 -190.72593567 79.23921875 -191.51846313 79.5234375 C-206.05528334 83.58509616 -206.05528334 83.58509616 -217 92 C-218.63143659 92.19937399 -220.26298494 92.39786701 -221.89501953 92.59228516 C-226.0194269 93.39114392 -229.68403494 95.35686266 -233.4375 97.1875 C-234.34056885 97.62312256 -235.2436377 98.05874512 -236.17407227 98.50756836 C-247.45949021 104.06300652 -258.25899461 110.46708138 -269 117 C-270.05356689 117.64001953 -270.05356689 117.64001953 -271.12841797 118.29296875 C-285.23403624 126.93703913 -298.53583238 136.90959908 -311.49609375 147.171875 C-314 149 -314 149 -317 150 C-317 151.32 -317 152.64 -317 154 C-317.81404297 154.34611328 -317.81404297 154.34611328 -318.64453125 154.69921875 C-323.3790727 156.8574872 -325.4399283 158.36748931 -328 163 C-329.06154297 163.34611328 -329.06154297 163.34611328 -330.14453125 163.69921875 C-335.0460471 165.93205702 -338.25680523 170.25992886 -341.828125 174.20898438 C-343.4865986 175.9593951 -345.05992922 177.56733235 -347 179 C-350.85033887 179.10289232 -351.71754217 178.26179019 -354.5625 175.625 C-355.366875 174.75875 -356.17125 173.8925 -357 173 C-357.763125 172.443125 -358.52625 171.88625 -359.3125 171.3125 C-359.869375 170.879375 -360.42625 170.44625 -361 170 C-361 169.34 -361 168.68 -361 168 C-361.66 168 -362.32 168 -363 168 C-363 167.34 -363 166.68 -363 166 C-363.66 166 -364.32 166 -365 166 C-365 165.34 -365 164.68 -365 164 C-365.66 164 -366.32 164 -367 164 C-368.625 162.625 -368.625 162.625 -370 161 C-370 160.34 -370 159.68 -370 159 C-370.66 159 -371.32 159 -372 159 C-372 158.34 -372 157.68 -372 157 C-372.763125 156.71125 -373.52625 156.4225 -374.3125 156.125 C-378.89414345 154.20710274 -380.5846722 152.20057009 -383 148 C-383.66 147.34 -384.32 146.68 -385 146 C-385.125 143.3125 -385.125 143.3125 -384 140 C-382.22381954 138.11562581 -380.31474118 136.53777928 -378.30078125 134.91015625 C-375.9292802 132.94128696 -373.82733692 130.84194816 -371.6875 128.625 C-367.27159957 124.16403936 -362.5552066 120.22614857 -357.6484375 116.31884766 C-354.39313821 113.71441537 -351.16924566 111.0710538 -347.9375 108.4375 C-340.50855258 102.38830173 -340.50855258 102.38830173 -336.82421875 99.49609375 C-335.93347656 98.79613281 -335.04273438 98.09617187 -334.125 97.375 C-333.36445313 96.78460938 -332.60390625 96.19421875 -331.8203125 95.5859375 C-329.77011552 93.94005259 -329.77011552 93.94005259 -328 91 C-326.06762695 90.43823242 -326.06762695 90.43823242 -324 90 C-321.67816469 88.48448012 -319.43427481 86.93222193 -317.1875 85.3125 C-299.950028 73.20441349 -281.61605203 62.81996745 -263 53 C-262.31679688 52.63841797 -261.63359375 52.27683594 -260.9296875 51.90429688 C-251.60859841 47 -251.60859841 47 -248 47 C-247.67 45.68 -247.34 44.36 -247 43 C-246.29617188 42.85304687 -245.59234375 42.70609375 -244.8671875 42.5546875 C-235.29178586 40.37959627 -224.702087 37.34289518 -217 31 C-216.34 31.33 -215.68 31.66 -215 32 C-212.24839025 31.06849737 -209.57404766 30.0670146 -206.875 29 C-177.01721913 17.62519767 -144.9126244 10.06259054 -113.30957031 5.55371094 C-112.54741211 5.37098633 -111.78525391 5.18826172 -111 5 C-110.67 4.34 -110.34 3.68 -110 3 C-109.01 3 -108.02 3 -107 3 C-107 3.66 -107 4.32 -107 5 C-106.40058594 4.87882812 -105.80117188 4.75765625 -105.18359375 4.6328125 C-82.80707663 0.49490748 -60.22073261 0.76263939 -37.56610107 0.92095947 C-31.07885833 0.96491604 -24.59155983 0.99376126 -18.10421371 1.0170002 C-15.85222417 1.02719923 -13.60035999 1.04421483 -11.34841919 1.06199646 C-9.98765164 1.06881422 -8.62688303 1.07542315 -7.26611328 1.08178711 C-6.07639923 1.09004013 -4.88668518 1.09829315 -3.66091919 1.10679626 C-1.07833215 1.30439248 -1.07833215 1.30439248 0 0 Z " fill="#131325" transform="translate(644,59)"/>
<path d="M0 0 C6.35450323 1.24702151 12.68327435 2.57364259 19 4 C19 4.33 19 4.66 19 5 C16.77027727 4.88534579 14.54121247 4.75785234 12.3125 4.625 C11.07113281 4.55539063 9.82976563 4.48578125 8.55078125 4.4140625 C5.30682228 4.03577906 2.93432815 3.38020024 0 2 C0 1.34 0 0.68 0 0 Z " fill="#C2C2C2" transform="translate(672,209)"/>
<path d="M0 0 C-0.33 1.32 -0.66 2.64 -1 4 C-1 3.34 -1 2.68 -1 2 C-1.99 2.66 -2.98 3.32 -4 4 C-6.26171875 4.1953125 -6.26171875 4.1953125 -8.6875 4.125 C-9.89986328 4.09792969 -9.89986328 4.09792969 -11.13671875 4.0703125 C-12.05904297 4.03550781 -12.05904297 4.03550781 -13 4 C-13 3.67 -13 3.34 -13 3 C-11.2092015 2.49689942 -9.41733089 1.99761372 -7.625 1.5 C-6.62726562 1.2215625 -5.62953125 0.943125 -4.6015625 0.65625 C-2 0 -2 0 0 0 Z " fill="#C1C1C1" transform="translate(534,209)"/>
<path d="M0 0 C1.98 0.495 1.98 0.495 4 1 C3.67 2.32 3.34 3.64 3 5 C1.68 4.67 0.36 4.34 -1 4 C-0.67 2.68 -0.34 1.36 0 0 Z " fill="#BDBDBD" transform="translate(205,758)"/>
<path d="M0 0 C1.98 0.495 1.98 0.495 4 1 C3.67 2.32 3.34 3.64 3 5 C1.68 4.67 0.36 4.34 -1 4 C-0.67 2.68 -0.34 1.36 0 0 Z " fill="#C2C2C2" transform="translate(95,648)"/>
<path d="M0 0 C0.99 0.33 1.98 0.66 3 1 C4.28317892 4.84953676 4.06643637 7.94738135 4 12 C3.67 12 3.34 12 3 12 C2.86722656 11.38511719 2.73445313 10.77023437 2.59765625 10.13671875 C2.42105469 9.32847656 2.24445313 8.52023437 2.0625 7.6875 C1.88847656 6.88699219 1.71445313 6.08648437 1.53515625 5.26171875 C1.00113841 2.854599 1.00113841 2.854599 0 0 Z " fill="#BBBBBC" transform="translate(1081,446)"/>
<path d="M0 0 C3 2 3 2 3.51171875 4.1640625 C3.56972656 4.97617187 3.62773438 5.78828125 3.6875 6.625 C3.75324219 7.44226563 3.81898438 8.25953125 3.88671875 9.1015625 C3.92410156 9.72804688 3.96148438 10.35453125 4 11 C1.82145293 7.7321794 0.50239966 4.61941735 -1 1 C-0.67 0.67 -0.34 0.34 0 0 Z " fill="#C3C3C3" transform="translate(972,396)"/>
<path d="M0 0 C1.65 0 3.3 0 5 0 C5.66 1.32 6.32 2.64 7 4 C4 4 4 4 1.8125 2 C1.214375 1.34 0.61625 0.68 0 0 Z " fill="#C5C5C5" transform="translate(814,211)"/>
<path d="M0 0 C0.66 0 1.32 0 2 0 C2 0.66 2 1.32 2 2 C0.68 2.33 -0.64 2.66 -2 3 C-1.34 2.01 -0.68 1.02 0 0 Z " fill="#FFFFFF" transform="translate(317,102)"/>
<path d="" fill="#BFBFBF" transform="translate(0,0)"/>
<path d="" fill="#BBBBBB" transform="translate(0,0)"/>
<path d="" fill="#DFDFDF" transform="translate(0,0)"/>
<path d="" fill="#CFCFCF" transform="translate(0,0)"/>
<path d="" fill="#C8C8C8" transform="translate(0,0)"/>
</svg>
